<svg width="16" height="15" viewBox="0 0 16 15" fill="none" xmlns="http://www.w3.org/2000/svg">
<path d="M14.3129 12.1181L14.3127 12.1185C14.1119 12.6857 13.6568 13.1157 13.2282 13.4058C12.7851 13.7056 12.2641 13.9287 11.7813 14.033L11.7789 14.0335C11.4535 14.1028 11.0521 14.1654 10.4104 14.0636C9.80276 13.9673 8.99806 13.727 7.83256 13.2439L14.3129 12.1181ZM14.3129 12.1181C14.4554 11.7149 14.5293 11.3352 14.5563 11.025C14.5697 10.8706 14.5725 10.722 14.5627 10.5883C14.5559 10.4958 14.5367 10.2794 14.4248 10.0815L14.4248 10.0815L14.4218 10.0762C14.2682 9.80945 14.0277 9.67309 13.9178 9.61303C13.8495 9.57573 13.7433 9.52431 13.6526 9.48038C13.6065 9.45806 13.5644 9.43767 13.5333 9.42205L13.5309 9.42084C13.3834 9.34741 12.9533 9.13455 12.5254 8.92788C12.1353 8.73945 11.6695 8.51773 11.4723 8.44692C11.2389 8.36022 10.9394 8.30596 10.6168 8.38995C10.2794 8.47777 10.0193 8.6899 9.83377 8.952L10.4867 9.41424L9.83572 8.94927C9.79592 9.00499 9.75732 9.05921 9.71989 9.11177C9.52678 9.38298 9.36485 9.6104 9.22988 9.77567C8.86965 9.63026 8.13276 9.33265 7.21905 8.51921L7.21902 8.51919C6.59751 7.96593 6.12923 7.29015 5.89168 6.91433L14.3129 12.1181ZM2.5646 8.62818L2.55468 8.61487C2.55085 8.60962 2.5463 8.60341 2.54106 8.59627C2.44789 8.46923 2.13829 8.0471 1.84629 7.47144C1.54367 6.87483 1.22344 6.04399 1.22344 5.15225C1.22344 3.44353 2.0966 2.5548 2.44083 2.20443C2.44953 2.19558 2.45789 2.18707 2.46588 2.1789L2.46604 2.17875C2.91278 1.72275 3.55525 1.58281 4.05155 1.58281C4.18462 1.58281 4.30568 1.58897 4.39644 1.59359C4.40471 1.59401 4.41273 1.59442 4.42048 1.5948C4.42645 1.59505 4.433 1.59528 4.44009 1.59554C4.57002 1.6002 4.88285 1.61141 5.17342 1.80126C5.4801 2.00163 5.64156 2.31161 5.7517 2.57524L5.75242 2.57697L5.75242 2.57697C5.82441 2.75041 5.92773 3.00108 6.03846 3.26976C6.11214 3.44853 6.1891 3.63526 6.26231 3.81252C6.35436 4.0354 6.44064 4.24372 6.50808 4.40508C6.54185 4.48588 6.57039 4.5537 6.59234 4.60517C6.60333 4.63095 6.61219 4.6515 6.61894 4.66693C6.62416 4.67885 6.62686 4.68483 6.62766 4.6866L2.5646 8.62818ZM2.5646 8.62818C2.56348 8.62671 2.56281 8.62582 2.56279 8.62584M2.5646 8.62818L2.56279 8.62584M2.56279 8.62584C2.56273 8.62588 2.5696 8.63549 2.59059 8.66586M2.56279 8.62584L2.59059 8.66586M2.59059 8.66586C2.59473 8.67185 2.59921 8.67834 2.60401 8.68529M2.59059 8.66586L2.60401 8.68529M2.60401 8.68529C2.62418 8.71451 2.64997 8.75185 2.67977 8.79454M2.60401 8.68529L2.67977 8.79454M2.67977 8.79454C2.75431 8.90132 2.85629 9.04493 2.98394 9.21555M2.67977 8.79454L2.98394 9.21555M2.98394 9.21555C3.23886 9.55626 3.59654 10.0052 4.04623 10.4884M2.98394 9.21555L4.04623 10.4884M4.04623 10.4884C4.93783 11.4465 6.2273 12.5788 7.83238 13.2438L4.04623 10.4884Z" stroke="#0094FF" stroke-width="1.6" stroke-linejoin="round"/>
</svg>
