<svg width="23" height="21" viewBox="0 0 23 21" fill="none" xmlns="http://www.w3.org/2000/svg">
<path d="M15.2438 12.8939L14.4301 12.3127C14.3719 12.3941 14.3153 12.4737 14.2602 12.5511C13.9392 13.002 13.6699 13.3803 13.4494 13.6356C13.4137 13.6208 13.3739 13.6048 13.3303 13.5872C12.797 13.3719 11.6915 12.9256 10.3259 11.7099L10.3259 11.7098C9.33134 10.8245 8.60158 9.73295 8.2751 9.2043C8.34908 9.11519 8.42505 9.03239 8.51395 8.9377C8.52894 8.92173 8.54459 8.90512 8.56081 8.88791C8.64842 8.79494 8.75255 8.68444 8.85714 8.5639C8.8721 8.54665 8.88708 8.52948 8.90205 8.5123C9.0935 8.29275 9.28553 8.07253 9.47197 7.67948C9.83779 6.94857 9.5319 6.26509 9.41476 6.02192C9.41352 6.01919 9.40901 6.00927 9.40011 5.98894C9.38989 5.96558 9.37664 5.93483 9.36037 5.89667C9.32788 5.82049 9.28576 5.72039 9.23608 5.60152C9.13684 5.36407 9.00995 5.05769 8.87468 4.73017C8.76699 4.4694 8.65385 4.19491 8.54559 3.93222C8.38296 3.53765 8.23132 3.16973 8.12561 2.91503L8.12471 2.91288C7.96596 2.5329 7.74558 2.11926 7.34095 1.8549C6.95648 1.6037 6.54157 1.58817 6.35081 1.58103C6.3408 1.58066 6.33141 1.5803 6.32267 1.57994C6.31097 1.57936 6.29891 1.57874 6.2865 1.57811C6.1529 1.57132 5.97935 1.5625 5.78854 1.5625C5.08497 1.5625 4.19514 1.76189 3.58424 2.38545L3.58405 2.38564C3.57224 2.3977 3.5599 2.41026 3.54707 2.42333C3.04955 2.92967 1.80859 4.19262 1.80859 6.63169C1.80859 7.90243 2.26577 9.09446 2.70478 9.95995C3.12725 10.7928 3.57517 11.4036 3.71103 11.5888C3.71867 11.5992 3.72533 11.6083 3.73094 11.616L3.74333 11.6327C3.74162 11.6304 3.7421 11.6311 3.74644 11.6373C3.75206 11.6453 3.76413 11.6625 3.78625 11.6945C3.79236 11.7034 3.79895 11.7129 3.80598 11.7231C3.83565 11.7661 3.87326 11.8205 3.91683 11.8829C4.02558 12.0387 4.17426 12.2481 4.36037 12.4969C4.7321 12.9937 5.25365 13.6483 5.90916 14.3527C7.21048 15.7511 9.08503 17.395 11.411 18.3586C13.1178 19.0663 14.2858 19.4136 15.1591 19.5521C16.0751 19.6974 16.6423 19.6082 17.106 19.5095L17.1089 19.5089C17.7955 19.3605 18.5404 19.042 19.1736 18.6134C19.7888 18.1971 20.4228 17.5919 20.7001 16.8088L20.7003 16.8082C20.9047 16.23 21.0102 15.6867 21.0486 15.2454C21.0677 15.0257 21.0714 14.817 21.0578 14.6319C21.048 14.4983 21.0211 14.2148 20.8774 13.9608L20.8774 13.9608L20.8736 13.9542C20.6739 13.6072 20.3589 13.4262 20.2011 13.34C20.104 13.2869 19.9586 13.2166 19.8284 13.1535C19.7585 13.1197 19.693 13.088 19.6415 13.0622L19.6385 13.0607C19.4222 12.953 18.7909 12.6405 18.163 12.3373C17.5827 12.057 16.9078 11.7362 16.6315 11.6373C16.3112 11.5182 15.9088 11.4469 15.4792 11.5587C15.0311 11.6753 14.6814 11.9578 14.4277 12.3161L15.2438 12.8939ZM15.2438 12.8939C15.5353 12.4823 15.9032 12.4313 16.2894 12.577M15.2438 12.8939C15.1884 12.9715 15.1331 13.0493 15.0781 13.1266C14.7265 13.6211 14.3874 14.0981 14.1054 14.4021M16.2894 12.577L13.4119 13.7589L13.4145 13.7527M16.2894 12.577C16.6828 12.7136 18.7648 13.7427 19.1928 13.9559C19.2812 14.0003 19.3634 14.0398 19.4391 14.0763C19.7299 14.2163 19.9246 14.31 20.007 14.4531M16.2894 12.577L20.007 14.4531M14.1054 14.4021L13.4159 13.754L13.4547 13.6611C13.4735 13.6527 13.487 13.6502 13.4925 13.6494C13.495 13.6491 13.4962 13.649 13.4962 13.649C13.4962 13.649 13.4939 13.6491 13.4894 13.6485C13.4817 13.6474 13.4717 13.6449 13.461 13.6404L13.4519 13.6624M14.1054 14.4021C13.8486 14.6753 13.4296 14.71 13.0781 14.5642M14.1054 14.4021L13.0781 14.5642M13.4519 13.6624C13.4507 13.6629 13.4494 13.6635 13.4482 13.6641C13.425 13.6754 13.3995 13.6931 13.3768 13.7172L13.4145 13.7527M13.4519 13.6624L13.4145 13.7527M13.4519 13.6624L13.4145 13.7527M13.0781 14.5642C13.0398 14.5483 12.9959 14.5305 12.9466 14.5106C12.39 14.2858 11.1554 13.7872 9.661 12.4568C8.40054 11.3347 7.54444 9.93767 7.29672 9.51873M13.0781 14.5642L8.13367 9.37699C8.13367 9.37698 8.13395 9.37654 8.13454 9.37566C8.13787 9.37029 8.15034 9.34882 8.16224 9.3139C8.17193 9.28546 8.17935 9.2537 8.18346 9.22011C8.18458 9.21088 8.18546 9.20151 8.18606 9.19204C8.18788 9.1635 8.18723 9.13399 8.18351 9.10435C8.17761 9.05738 8.16622 9.02789 8.16194 9.01801L8.05052 9.08249L8.03333 9.09244L7.29672 9.51873M7.29672 9.51873L8.0269 9.08697L8.04375 9.07701L8.1575 9.00975C8.15849 9.01143 8.1595 9.01313 8.16051 9.01484M7.29672 9.51873C7.0535 9.09847 7.2633 8.85203 7.45719 8.62427C7.46078 8.62005 7.46436 8.61584 7.46794 8.61164C7.59295 8.45696 7.71426 8.32817 7.83618 8.19873C7.92388 8.10563 8.01189 8.01219 8.10181 7.90854C8.11517 7.89315 8.12816 7.87821 8.14081 7.86367C8.33175 7.64412 8.44546 7.51339 8.57358 7.24006L8.16051 9.01484M8.16051 9.01484C8.16034 9.01449 8.16026 9.01431 8.16026 9.01431C8.16026 9.01431 8.16049 9.01475 8.16097 9.01562L8.16051 9.01484ZM20.007 14.4531C20.109 14.6334 20.109 15.4804 19.7575 16.475L20.007 14.4531ZM6.27669 2.57889C6.70474 2.59711 6.91967 2.62261 7.202 3.29838L5.78854 2.5625C5.95264 2.5625 6.10165 2.57004 6.23696 2.57689C6.25034 2.57757 6.26358 2.57824 6.27669 2.57889Z" stroke="#80C2FF" stroke-width="2" stroke-linejoin="round"/>
</svg>
