<svg width="18" height="18" viewBox="0 0 18 18" fill="none" xmlns="http://www.w3.org/2000/svg">
<path opacity="0.5" d="M8.23307 1.2229C8.60421 0.495649 9.64336 0.495648 10.0145 1.2229L11.932 4.98032C12.0773 5.26504 12.35 5.46314 12.6657 5.51335L16.8318 6.17592C17.6381 6.30417 17.9592 7.29246 17.3822 7.87017L14.4013 10.855C14.1754 11.0811 14.0712 11.4017 14.1211 11.7174L14.7783 15.8843C14.9055 16.6908 14.0648 17.3016 13.3371 16.9314L9.57721 15.0187C9.2923 14.8738 8.95527 14.8738 8.67037 15.0187L4.91049 16.9314C4.18277 17.3016 3.34207 16.6908 3.46928 15.8843L4.12652 11.7174C4.17632 11.4017 4.07217 11.0811 3.84629 10.855L0.865324 7.87017C0.288356 7.29246 0.609469 6.30417 1.41581 6.17593L5.58189 5.51335C5.89757 5.46314 6.17023 5.26504 6.31553 4.98032L8.23307 1.2229Z" fill="white"/>
</svg>
