<svg width="21" height="19" viewBox="0 0 21 19" fill="none" xmlns="http://www.w3.org/2000/svg">
<path d="M8.04111 11.2837C7.88679 11.4222 7.79232 11.6153 7.77761 11.8222L7.48854 15.888C7.4728 16.1095 7.5498 16.3275 7.70113 16.49C7.85246 16.6525 8.0645 16.7447 8.28653 16.7447C8.62057 16.7447 8.90872 16.6697 9.16431 16.5223C9.38038 16.3978 9.54428 16.2344 9.64136 16.1377C9.64517 16.1339 9.64888 16.1302 9.65248 16.1266L11.1011 14.7421L14.5781 17.2884C14.6047 17.3079 14.6325 17.3258 14.6613 17.3418C15.1233 17.5993 15.7253 17.7788 16.31 17.5139C16.8918 17.2504 17.1633 16.6792 17.2856 16.1429L17.2856 16.1429L17.2879 16.1321L19.9191 3.80289C19.9215 3.7935 19.9237 3.78406 19.9257 3.77456C20.0721 3.09223 19.9977 2.37732 19.4992 1.8976C18.9911 1.40866 18.2974 1.40621 17.7526 1.60898L17.7526 1.60895L17.7457 1.61161L2.24397 7.54652L2.24397 7.54652L2.24052 7.54785C1.92304 7.67109 1.63423 7.82673 1.40719 8.02563C1.18464 8.22059 0.957992 8.51601 0.923156 8.91097C0.886002 9.33222 1.08261 9.67122 1.31946 9.89264C1.54442 10.1029 1.83015 10.2376 2.11256 10.3252C2.11263 10.3252 2.1127 10.3252 2.11278 10.3253C2.11295 10.3253 2.11313 10.3254 2.11331 10.3254L6.07572 11.5579C6.29832 11.6271 6.54005 11.5958 6.73767 11.4722L10.3448 9.21512L8.04111 11.2837Z" stroke="#26A1FC" stroke-width="1.6" stroke-linejoin="round"/>
</svg>
