<svg width="21" height="21" viewBox="0 0 21 21" fill="none" xmlns="http://www.w3.org/2000/svg">
<path d="M2.3029 18.2597C2.207 18.5456 2.27997 18.861 2.49165 19.0758C2.70333 19.2905 3.01775 19.3679 3.30495 19.2761L6.14001 18.3698C7.50931 19.1948 9.10753 19.6658 10.8178 19.6658C15.8364 19.6658 19.9158 15.5838 19.9158 10.5657C19.9158 5.54769 15.8364 1.46562 10.8178 1.46562H10.8137C5.79516 1.46562 1.71562 5.54659 1.71562 10.5657C1.71562 12.4057 2.26435 14.1231 3.20975 15.5564L2.3029 18.2597ZM11.4178 13.7942L11.4176 13.7941C9.41661 12.9651 8.05101 11.0178 7.69091 10.5043C7.66299 10.4645 7.64112 10.4333 7.62546 10.4119C7.62239 10.4077 7.61886 10.4029 7.6149 10.3975C7.54573 10.3031 7.3451 10.0293 7.15569 9.6559C6.94964 9.24969 6.79337 8.79506 6.79337 8.37969C6.79337 7.54917 7.17347 7.16327 7.38959 6.94384C7.39684 6.93649 7.4039 6.92932 7.41075 6.92233C7.41341 6.92048 7.43139 6.90767 7.47422 6.89347C7.53089 6.87468 7.60687 6.86189 7.69074 6.86189C7.7241 6.86189 7.75599 6.86259 7.78847 6.86373C7.83765 6.9826 7.9008 7.13582 7.96941 7.3023C8.14974 7.73985 8.36783 8.26903 8.46958 8.50722C8.45789 8.52086 8.44539 8.53524 8.42993 8.55301C8.42217 8.56194 8.41365 8.57173 8.40413 8.58271C8.36446 8.62843 8.32699 8.66823 8.27757 8.72074C8.26715 8.7318 8.25621 8.74343 8.2446 8.75579C8.18392 8.82043 8.11088 8.89935 8.03354 8.99425C8.03221 8.99577 8.03074 8.99745 8.02912 8.99929C7.98363 9.05113 7.82674 9.22992 7.74638 9.4658C7.63406 9.79548 7.68733 10.131 7.8574 10.4249L7.85737 10.4249L7.86118 10.4313C8.01264 10.6875 8.55113 11.5711 9.36458 12.2952C10.319 13.1449 11.1257 13.4708 11.4607 13.6061C11.4888 13.6175 11.5137 13.6276 11.535 13.6364L11.5365 13.6371C11.9475 13.8074 12.5727 13.8199 13.0109 13.3537L13.0146 13.3497C13.1985 13.1515 13.4079 12.8612 13.5922 12.6019C13.612 12.6109 13.6328 12.6205 13.6547 12.6306C13.7954 12.6957 13.9677 12.7779 14.1436 12.8629C14.4936 13.0319 14.8469 13.2068 14.9681 13.2671C14.9802 13.2732 14.9922 13.2792 15.004 13.285C14.9851 13.4079 14.9505 13.5576 14.8932 13.7198L15.6474 13.9864L14.8933 13.7194C14.8744 13.7727 14.7835 13.9103 14.5472 14.0703C14.3257 14.2202 14.0633 14.3295 13.8506 14.3756C13.7006 14.4075 13.5531 14.4357 13.2428 14.3865C12.8974 14.3317 12.3449 14.1786 11.4178 13.7942ZM15.2531 13.4081C15.253 13.4081 15.2527 13.4079 15.2522 13.4076L15.2531 13.4081Z" stroke="#26A1FC" stroke-width="1.6" stroke-linejoin="round"/>
</svg>
