<svg width="25" height="26" fill="none" xmlns="http://www.w3.org/2000/svg"><path d="M3.32 9.34c-.2-.11-.43-.18-.65-.26-.29-.1-.58-.2-.85-.32-.16-.07-.32-.13-.46-.22-.07-.04-.11-.1-.08-.17s.1-.06.17-.04c.05.01.1.06.15.01-.09-.15-.24-.25-.34-.39-.1-.14-.17-.3-.24-.45-.03-.09-.04-.2.04-.26.1-.08.22-.09.33-.04.17.08.34.18.53.19.05 0 .1.03.14-.02-.07-.1-.21-.11-.3-.2-.04-.05-.15-.07-.1-.16.05-.09.15-.08.23-.04l.6.33c.14.09.28.14.42 0 .06-.06.16-.04.24-.04.04 0 .1.01.11-.04.02-.05-.04-.08-.08-.1-.12-.07-.26-.13-.36-.22-.17-.16-.38-.28-.57-.4-.06-.05-.13-.1-.07-.2.05-.07.12-.05.2-.03.17.07.32.18.45.3.23.2.48.38.77.5.07.03.1.1.18.1.04 0 .09.02.1-.02.03-.05-.02-.07-.05-.09-.11-.08-.22-.17-.35-.24-.23-.14-.44-.31-.66-.47-.14-.1-.26-.22-.38-.33-.06-.06-.14-.14-.08-.22.07-.09.17-.04.25 0 .1.04.16.12.23.2.19.2.42.35.65.5l.21.16c.5.31 1.03.56 1.48.95.07.06.18.1.3.12-.07-.14-.18-.2-.28-.27l-1.14-.77a.45.45 0 0 1-.08-.07c-.27-.28-.63-.45-.89-.75-.12-.14-.31-.17-.44-.3-.04-.04-.1-.07-.1-.13-.04-.1 0-.17.12-.15.17.04.33.13.45.25.23.23.48.45.73.66.23.2.5.37.76.55l.66.46c.19.12.36.26.53.4.05.05.11.12.21.12-.01-.1-.08-.14-.14-.18-.15-.12-.29-.26-.47-.34a.53.53 0 0 1-.24-.24c-.03-.05-.05-.1.01-.15.06-.04.12-.06.18 0l.55.44c.03.03.06.06.14.04-.12-.11-.2-.26-.33-.33-.26-.15-.46-.38-.69-.57-.1-.09-.22-.18-.3-.3-.02-.03-.06-.07-.03-.11.03-.05.09-.05.13-.02.07.04.15.06.2.12.15.17.35.27.5.44.01.01.03.03.06.02.02-.05-.02-.07-.05-.1-.28-.26-.56-.5-.8-.81-.09-.12-.24-.19-.34-.31l-.48-.54c-.11-.12-.23-.22-.37-.3-.1-.05-.17-.12-.1-.22.06-.1.15-.06.23-.01.04.01.06.05.12.04l-.1-.17c-.02-.05-.03-.1.01-.13.04-.04.1-.03.13 0 .06.03.12.08.2.11l-.22-.49c-.02-.04-.05-.08-.06-.13-.05-.21.06-.33.27-.26.12.04.25.07.36.15.07.04.12.04.15-.05.04-.12.11-.13.2-.04.13.14.26.3.37.46.1.15.23.26.43.3-.2-.2-.34-.47-.53-.69a.94.94 0 0 1-.16-.23c-.06-.14 0-.23.15-.22.07.01.1.01.1-.07 0-.07 0-.16.1-.18a.2.2 0 0 1 .22.12c.1.23.28.42.42.63.2.3.45.57.64.88.13.23.27.45.44.64.05.06.1.13.18.16.03-.04 0-.07-.02-.09-.16-.2-.27-.43-.45-.62-.14-.14-.2-.33-.29-.5-.15-.3-.34-.56-.52-.82-.13-.2-.2-.42-.38-.58a.12.12 0 0 1-.02-.16c.04-.06.1-.06.16-.03.12.05.23.12.3.24l.8 1.36c.06.1.08.2.14.3.3.4.58.82.87 1.23.08.12.22.19.3.31-.05-.2-.2-.34-.29-.52-.08-.17-.21-.3-.3-.47-.2-.39-.41-.77-.63-1.15-.2-.34-.42-.67-.64-1a.47.47 0 0 1-.09-.24c0-.06 0-.1.06-.14.05-.03.1-.01.15.02.12.06.15.2.22.3l.86 1.5c.07.12.14.24.19.37.06.2.18.36.3.53.1.14.18.3.27.46l.22.3c.04-.1 0-.18-.04-.25-.25-.43-.5-.85-.73-1.29-.27-.52-.58-1.02-.85-1.54a1.8 1.8 0 0 0-.23-.33c-.07-.09-.09-.18-.08-.29 0-.05 0-.1.07-.13.05-.02.09.02.12.05.12.1.18.24.25.38.2.4.44.76.61 1.15.14.32.32.62.5.91l.23.38c.04.05.06.12.15.13-.08-.12-.12-.26-.21-.37a.83.83 0 0 1-.14-.24c-.17-.44-.4-.84-.63-1.24-.19-.33-.35-.68-.54-1a.73.73 0 0 1-.06-.16c-.03-.07-.02-.14.06-.18.08-.04.14 0 .2.05l.07.12c.11.36.34.66.49 1 .14.33.34.64.45.99.06.2.19.39.3.58a.08.08 0 0 0 .09.05c.04-.01.05-.05.05-.1 0-.04 0-.1-.04-.14-.2-.29-.3-.63-.48-.93-.23-.42-.38-.88-.65-1.28-.06-.1-.1-.23-.14-.34a.15.15 0 0 1 .05-.18c.06-.05.12 0 .17.04.07.05.12.12.14.2.06.21.17.4.22.6.01.09.07.16.12.23.17.27.26.58.43.85.04.05.06.11.12.15.05-.06.03-.12 0-.16-.21-.32-.3-.7-.46-1.04-.16-.33-.24-.69-.45-1-.05-.06-.04-.15.03-.21.08-.06.15-.03.21.02.1.08.14.2.16.31.02.1.06.2.1.3l.16-.45c.07-.19.13-.38.24-.54a.43.43 0 0 1 .12-.12c.13-.08.25-.05.3.1l.1.46c.07.24.18.46.32.7a.53.53 0 0 0 0-.35L8.98.89a.6.6 0 0 1-.03-.15c0-.06 0-.13.07-.16.07-.02.15-.02.2.03.07.07.13.14.14.23l.1.86c.02.16.1.3.03.46-.03.05.15.3.2.32.07.01.06-.04.06-.08-.02-.3-.11-.58-.18-.86-.06-.27-.16-.54-.2-.81 0-.09.02-.14.1-.17.07-.03.13.01.17.08a.7.7 0 0 1 .08.29c.02.28.1.55.16.82.06.2.12.4.1.62-.01.13.03.25.07.36.08.24.2.46.26.7.06-.1.02-.19-.02-.28-.02-.07-.05-.13-.05-.2 0-.3-.12-.57-.17-.86a1.1 1.1 0 0 1-.03-.2c0-.27-.06-.53-.14-.79a1.42 1.42 0 0 1-.06-.53c.01-.08.05-.16.14-.16.1 0 .13.08.14.16 0 .34.11.66.13 1 .01.29.11.57.16.86.02.13.01.27.05.4.01.04.01.1.07.13.04-.1.04-.22.01-.32-.12-.4-.09-.8-.17-1.2-.06-.28-.05-.56-.07-.84 0-.07.02-.14.1-.14.1 0 .14.05.15.13l.12.9c.05.31 0 .64.1.94.07.27-.02.54.06.8.11.34.03.72.16 1.06.02.05.02.12.02.18 0 .13.05.23.11.33.07-.03.06-.09.06-.14 0-.2 0-.4-.05-.6-.06-.22-.03-.46-.05-.7-.03-.27-.04-.55-.08-.83-.08-.63-.04-1.28-.15-1.9V.44c.02-.05.03-.1.1-.1a.12.12 0 0 1 .13.08c.03.1.07.18.07.28-.03.53.06 1.06.07 1.6 0 .27-.01.54.06.8a.6.6 0 0 1-.02.36c-.03.1 0 .2.01.3 0 .03.01.07.05.07.03 0 .03-.04.04-.07l.03-.36c.03-.34-.07-.67-.08-1l.01-.87c0-.35-.09-.69-.06-1.03l.02-.2c.02-.08.07-.15.16-.13.1.02.13.1.12.18-.02.19-.04.37-.04.55l.03 1.05c0 .19-.05.37.02.57a.4.4 0 0 0 .11-.24c.03-.12.04-.25.04-.37-.02-.51.06-1.02.03-1.53 0-.08-.03-.21.08-.22.11 0 .1.13.12.21v.16c.04-.12.07-.24.12-.35.06-.13.16-.2.3-.19.1 0 .17.04.2.14l.12.33c.05-.09.01-.15 0-.21 0-.08-.02-.17.06-.23a.14.14 0 0 1 .16 0 .2.2 0 0 1 .09.22c-.13.47-.03.92.02 1.38l.06.65c0 .06 0 .16.09.16.06-.01.06-.11.06-.17V.97c0-.18.01-.36-.01-.54-.02-.1.04-.18.14-.2.1 0 .16.08.16.17 0 .18.02.36-.03.54-.04.1-.03.22-.03.33 0 .41.04.83 0 1.24-.05.45.08.88.03 1.32a.1.1 0 0 0 .01.04l.03.02a.23.23 0 0 0 .04-.17c-.05-.5.02-1 .02-1.5l-.02-.33c-.01-.5.08-.98.07-1.48 0-.14.08-.24.17-.23.1.01.18.14.16.28-.08.5-.06 1-.06 1.51 0 .3-.04.6-.07.9-.03.25-.08.52.05.8.06-.1.1-.22.08-.33-.01-.3.05-.57.1-.86.05-.23 0-.46.02-.7.04-.38-.01-.77.08-1.15.04-.18.12-.28.2-.24.14.06.12.18.1.3a6.75 6.75 0 0 0-.09 1.57c.04-.06.1-.4.1-.54.05-.42.11-.84.2-1.25.03-.1.1-.17.2-.15.13.03.13.13.11.23-.04.2-.16.36-.2.57-.06.42-.2.84-.17 1.28.01.08-.04.16.01.25.07-.17.13-.33.14-.5.05-.5.15-1 .32-1.49.03-.07.06-.16.17-.13.1.03.1.12.08.2-.02.18-.12.34-.16.52-.1.36-.16.72-.2 1.1-.04.36-.15.7-.24 1.05-.04.16-.1.32-.07.5 0 .03 0 .07.04.08.04.02.07-.01.1-.04l.1-.17c.07-.26.1-.54.14-.8.07-.47.15-.93.25-1.39.06-.26.1-.53.18-.79.03-.1.1-.16.2-.12a.15.15 0 0 1 .1.1.15.15 0 0 1-.03.13c-.25.36-.18.78-.29 1.17-.08.32-.11.65-.17.98-.03.15-.15.28-.12.45 0 .04-.02.1.04.1.04.01.08-.03.1-.07.03-.1.07-.19.08-.28.04-.36.15-.7.16-1.07 0-.14.07-.26.1-.4.08-.29.14-.58.26-.85a.3.3 0 0 1 .06-.11c.04-.03.07-.05.12-.04a.1.1 0 0 1 .06.1l-.01.1c0 .05-.05.11.02.14.07.03.09-.03.12-.07.16-.17.37-.29.55-.43.1-.07.32-.02.4.07.08.1.06.27-.04.41-.15.22-.2.47-.24.73-.01.05-.02.1.03.16.11-.14.11-.32.19-.47.02-.07.06-.14.1-.2.05-.06.13-.09.2-.04.07.04.06.12.03.17-.18.3-.26.62-.4.91-.04.09-.1.17-.04.29.09-.1.16-.2.2-.31.07-.14.15-.28.24-.4.07-.09.1-.21.14-.31.03-.08.08-.18.18-.13.1.05.08.15.04.23-.15.3-.31.59-.43.9-.03.06-.07.13-.04.22.09-.08.12-.18.16-.27a12.83 12.83 0 0 1 .48-.9c.06-.08.13-.14.23-.1.1.06.04.15.01.23-.06.16-.19.28-.18.46l.1-.15.1-.13c.05-.07.12-.16.22-.09.08.07 0 .15-.05.21-.12.23-.22.46-.31.7.04 0 .06-.01.06-.03.1-.25.29-.46.38-.71.05-.13.16-.19.25-.14.1.04.13.16.06.28-.16.26-.3.53-.45.8l-.24.44c-.08.13-.1.3-.18.44-.05.09-.12.17-.13.29.06 0 .07-.05.09-.08.14-.3.34-.55.47-.85.15-.37.37-.71.57-1.06.03-.07.09-.14.18-.12.08.03.12.1.07.18-.06.12-.12.25-.2.36-.22.25-.32.56-.45.85a22 22 0 0 1-.64 1.24c-.03.05-.07.1-.07.17 0 .02 0 .05.03.05a.05.05 0 0 0 .04-.01l.01-.02c.08-.23.24-.42.37-.62a19.88 19.88 0 0 0 .61-1.07c.14-.29.35-.54.48-.83.04-.1.13-.1.22-.05s.07.13.03.2c-.15.28-.35.52-.48.8-.2.4-.49.77-.64 1.22.08-.09.18-.16.22-.26.12-.26.32-.47.46-.71.15-.27.34-.52.48-.8.04-.07.1-.1.19-.08.08.04.05.1.04.16-.06.2-.18.37-.3.53-.15.22-.25.46-.4.68l-.17.25c-.03.03-.06.07-.03.1.04.04.09.01.11-.02l.15-.16.71-.95c.04-.05.06-.13.1-.19.05-.07.13-.12.22-.07.09.05.06.14.03.22-.08.15-.23.26-.28.45.1-.03.19-.08.26-.16a.76.76 0 0 1 .25-.17c.11-.05.23-.1.33 0s.08.24.02.36l-.24.43c-.07.12-.14.25-.24.36a.36.36 0 0 0-.09.21c.08 0 .12-.05.14-.1.11-.27.36-.44.52-.68.02-.03.05-.07.09-.05.05.03.01.08-.01.11-.13.22-.27.43-.42.62a.95.95 0 0 0-.16.22.66.66 0 0 1-.29.34c-.1.06-.16.17-.22.28-.09.15-.16.31-.21.48.23-.24.47-.47.64-.77.03-.05.06-.1.11-.14.24-.2.38-.46.52-.73.04-.07.1-.12.17-.17.05-.02.1-.04.14 0a.13.13 0 0 1 .04.15l-.03.07c-.26.32-.44.68-.7.99a13.18 13.18 0 0 0-.65.86c0 .01 0 .03.02.03a5.49 5.49 0 0 0 .94-.95c.19-.23.4-.44.6-.65.05-.05.1-.09.17-.05.07.03.07.11.05.18 0 .04-.02.08-.05.1-.33.33-.6.71-.9 1.04-.23.25-.48.48-.72.72-.21.2-.41.4-.6.62-.2.24-.45.42-.65.66-.03.03-.08.05-.09.12.11-.03.18-.1.24-.17.29-.31.58-.61.93-.86.28-.2.5-.48.76-.7.28-.25.55-.5.82-.78l.41-.4c.08-.07.18-.11.26-.03.07.08.05.2-.03.26-.36.3-.63.68-.99.97-.3.24-.56.5-.84.76l-.12.14a.2.2 0 0 0 .17-.07c.18-.2.41-.34.62-.5.43-.36.88-.67 1.26-1.09.07-.07.15-.12.24-.03.1.08.04.16-.02.24-.2.26-.48.4-.7.6-.3.28-.68.48-.96.78-.2.2-.44.35-.67.5-.1.07-.2.13-.27.25.04.02.07 0 .09-.01.27-.2.57-.35.85-.53.16-.1.29-.24.45-.34.29-.16.5-.4.8-.57.1-.05.18-.13.24-.23.07-.1.16-.17.25-.25.08-.05.17-.05.25-.03.1.03.12.14.05.22l-.16.14-.08.05c-.23.24-.53.4-.79.61-.39.32-.85.54-1.25.84-.05.04-.14.07-.1.14.03.07.14.05.2.02.17-.07.33-.15.5-.25l.33-.21 1.31-.97c.1-.07.18-.07.26 0 .1.1 0 .16-.05.22-.1.1-.23.16-.35.25-.4.29-.83.54-1.22.84-.08.06-.18.1-.27.14-.05.02-.11.04-.1.1.03.07.1.03.13.02.24-.06.44-.19.64-.3.4-.25.83-.47 1.22-.75.05-.04.1-.06.17-.06a.14.14 0 0 1 .14.08c.02.05 0 .09-.03.13-.12.17-.3.23-.47.31l-.53.27c-.03.01-.08.03-.06.08.02.04.06.02.09.01l.52-.22.35-.19c.08-.04.16-.06.21.03.05.1.05.19-.04.26-.05.05-.17.06-.15.15.03.08.14.08.22.1.15.05.3.03.46.07.12.02.23.05.27.2.03.13-.06.2-.15.27a3.83 3.83 0 0 1-1.1.59c-.05.04-.15.06-.11.15.03.08.13.04.2.03a6.57 6.57 0 0 0 1-.41c.07-.03.14-.05.18.03.04.08 0 .13-.07.18-.42.25-.86.44-1.34.52-.13.02-.25.07-.38.07-.07 0-.1.04-.15.08-.06.06-.11.13-.2.17.18 0 .34-.04.49-.1.1-.05.21-.09.33-.11.3-.05.59-.17.88-.28a.25.25 0 0 1 .1-.02c.09.01.17.04.19.13.02.1-.03.16-.12.19l-.88.24c-.37.1-.74.14-1.1.27-.36.12-.74.13-1.11.13-.3.01-.58.09-.83.23-.04.01-.1.04-.08.09.02.04.08.03.12.02.43-.14.89-.15 1.33-.23.24-.04.49-.1.73-.08.07 0 .15-.01.17.07.02.1-.07.13-.13.14-.2.04-.39.12-.61.11-.3 0-.6.1-.9.17-.13.03-.29 0-.41.1l.73-.03c.48-.04.96-.14 1.43-.23.18-.03.36 0 .52-.06.26-.07.53-.09.79-.14.15-.03.3-.08.44-.1.1 0 .18 0 .23.09.05.1 0 .18-.07.24-.1.08-.1.13.03.17.09.03.15.1.13.2-.02.1-.1.14-.2.15-.2 0-.4.03-.6.02a4 4 0 0 0-1.03.08c-.33.08-.67.09-1 .14-.2.03-.4.06-.6.04-.03 0-.06-.02-.07.01a.04.04 0 0 0 .03.04c.29.01.58.05.86.02.37-.04.73-.12 1.1-.12.4 0 .77-.11 1.16-.1l.13-.02c.09 0 .17.02.2.1.03.1 0 .17-.07.22-.05.05-.08.08-.02.15.07.1.02.16-.08.19l-.2.06c-.03.01-.06.03-.05.07 0 .03.03.04.06.05l.49.16c.12.04.27.06.3.2.02.16-.06.28-.19.37l-.1.09c-.11.05-.2.1-.05.21.06.05.03.13-.04.17a.26.26 0 0 1-.23.03.96.96 0 0 0-.38-.04c-.17.01-.32-.07-.5-.07l-.08-.01c-.04 0-.11 0-.12.05 0 .06.07.05.12.05.3.01.6.1.91.15.23.03.29.15.16.35-.03.05-.02.09.01.14.1.14.02.28-.14.3h-.07c-.24-.07-.48-.08-.72-.1-.29-.01-.55-.15-.83-.2-.19-.04-.38-.05-.58-.08-.21-.03-.43-.08-.66-.1-.06 0-.13-.01-.21.02.08.09.17.1.26.1.41.04.8.18 1.2.23.39.05.74.24 1.13.23l.26.02a.6.6 0 0 1 .2.03c.16.06.18.2.07.3a1 1 0 0 1-.11.09c0 .05.04.05.07.06.09.04.17.09.13.2-.04.11-.14.17-.25.13-.21-.07-.43-.07-.64-.15-.28-.12-.59-.14-.89-.2l-1.18-.25c-.24-.05-.46-.16-.7-.24-.03 0-.06-.03-.11 0 .06.12.17.16.29.2l.55.13c.4.11.82.18 1.23.3l1.11.29c.1.02.2.06.3.1.07.03.1.09.1.17-.02.09-.1.1-.16.1a2.66 2.66 0 0 1-.71-.14c-.49-.16-.97-.31-1.47-.45a.3.3 0 0 1-.15-.08c-.05-.06-.1-.08-.18-.03-.04.02-.1-.01-.1.04-.01.07.05.11.1.12.17 0 .3.12.47.13.3.03.55.16.82.26.18.08.38.13.57.15.21.03.41.11.61.18.08.02.1.09.09.16a.16.16 0 0 1-.13.16c-.05.01-.11.02-.15 0-.15-.12-.35-.15-.52-.2-.47-.11-.9-.37-1.38-.42-.09-.01-.17-.05-.29-.08.11.14.2.24.37.28.17.04.34.09.5.15.07.02.17.05.13.15-.04.09-.12.13-.22.1s-.2-.07-.3-.05c.04.08.12.15.21.18.44.15.86.35 1.28.56.15.07.17.15.07.29-.05.07-.05.12 0 .18.08.1.18.17.3.22l.16.06c.23.1.24.22.06.38a.77.77 0 0 1-.52.2c-.44.02-.83-.1-1.19-.35-.08-.06-.18-.1-.28-.14-.03-.02-.07-.04-.09 0-.03.04.01.06.04.09.17.18.38.3.59.44.1.06.18.13.22.23a.12.12 0 0 1 0 .13.12.12 0 0 1-.15.04.5.5 0 0 1-.25-.16c-.14-.19-.33-.31-.51-.45-.09-.06-.15-.15-.24-.2l-.15-.08c-.04-.02-.1-.06-.14-.02-.04.05.04.08.07.1.3.28.62.56.94.83.08.06.12.12.05.2-.07.1-.16.1-.24.03-.26-.24-.57-.42-.81-.69a3.9 3.9 0 0 1-.86-.6c-.03-.03-.08-.04-.11 0-.03.05.01.07.04.1l1.16.95c.23.19.45.4.7.55.1.07.09.17.04.27-.06.1-.12.08-.22.05-.19-.05-.3-.18-.37-.34a.2.2 0 0 0-.1-.09c-.27-.15-.46-.4-.71-.6-.47-.36-.9-.75-1.38-1.09-.34-.23-.6-.55-.94-.79-.02-.02-.04-.06-.12-.03.23.19.37.45.64.59.1.05.2.12.28.21.15.19.34.35.54.48.12.08.22.17.31.28.24.26.51.49.8.69.34.23.58.53.89.79.08.07.1.17.03.25-.07.08-.17.03-.23-.05-.23-.28-.52-.51-.81-.74-.31-.25-.61-.51-.95-.73a.9.9 0 0 0-.08-.04c.08.12.17.16.24.22.3.24.57.5.83.78.14.14.33.22.46.37l.17.23c.03.06.03.11-.02.16s-.1.02-.15-.02c-.3-.34-.71-.57-1.01-.92a.99.99 0 0 0-.34-.27c-.1-.04-.16-.14-.23-.21-.1-.12-.2-.24-.37-.31.04.17.17.27.28.35.24.16.38.42.63.55l.05.05c.06.07.12.15.06.23-.06.08-.15.04-.23.02-.02 0-.04-.02-.06 0a.05.05 0 0 0 .03.06c.28.2.45.48.68.72.07.06.14.12.23.15.01.31.01.31-.33.14.2.27.22.59.36.86.04.07.05.16-.02.22-.08.06-.17.05-.25 0-.1-.05-.2-.1-.29-.17a.19.19 0 0 0-.21 0c-.13.07-.23.05-.32-.07a1.3 1.3 0 0 0-.3-.28c-.04.07 0 .11.03.15.08.09.1.2.14.3.05.08 0 .15-.08.2-.08.04-.13-.02-.17-.07a1.33 1.33 0 0 1-.1-.19c-.14-.28-.4-.5-.53-.78-.05-.11-.09-.23-.2-.3-.03-.03-.05-.07-.1-.04-.03.03 0 .06.01.1.04.1.11.17.17.26.21.33.38.69.6 1 .11.16.1.35 0 .38-.16.05-.22-.1-.28-.2-.16-.24-.27-.52-.43-.77-.18-.28-.35-.58-.52-.87a.7.7 0 0 0-.23-.24c-.04.06-.02.1 0 .15.15.25.26.52.5.71.01.02.03.04.03.07.03.35.27.6.43.9l.14.28c.02.07.02.14-.05.18-.07.04-.12 0-.16-.05a2.3 2.3 0 0 1-.38-.56c-.11-.24-.22-.5-.4-.7-.04-.05-.08-.1-.1-.16-.1-.37-.38-.66-.55-1-.1-.21-.3-.35-.38-.57a.11.11 0 0 0-.03-.05c-.04-.03-.08-.09-.12-.06-.06.04.02.08.03.12.07.23.28.36.4.56l.38.65c.13.22.24.45.36.68.2.36.37.73.57 1.1.06.12.13.25.06.4-.07.12-.15.13-.23.03-.08-.1-.17-.2-.17-.34a.45.45 0 0 0-.06-.19c-.2-.39-.38-.79-.62-1.16-.17-.26-.29-.56-.45-.82-.05-.07-.1-.19-.16-.16-.08.04 0 .14.04.21.07.16.2.3.22.49 0 .02.01.03.03.05.22.22.32.52.49.78.14.21.18.47.34.68a1.04 1.04 0 0 1 .23.57c0 .15-.36.36-.49.29-.04-.03-.08-.05-.12.01-.1.16-.17.16-.28.02-.03-.03-.04-.08-.08-.08-.05 0-.04.07-.06.1a.8.8 0 0 0 0 .39c.02.16 0 .32-.04.48-.04.16-.12.2-.27.12-.14-.08-.23-.2-.34-.31l-.12-.13c-.05-.05-.1-.06-.16-.03-.12.08-.18 0-.22-.1l-.13-.53a1.52 1.52 0 0 0-.08-.21.06.06 0 0 0-.07-.04c-.04.01-.03.04-.02.07l.15.7a.7.7 0 0 1 .03.27c0 .07-.04.13-.12.14-.08 0-.13-.04-.15-.1a1.46 1.46 0 0 1-.07-.28 5.92 5.92 0 0 0-.24-1.1c-.02-.06-.05-.11-.12-.1-.09.01-.07.08-.05.14.1.34.1.7.23 1.03.06.15.05.32.06.48 0 .07-.02.13-.06.19a.16.16 0 0 1-.22.04.16.16 0 0 1-.06-.07.34.34 0 0 1-.03-.16c0-.28-.04-.56-.08-.83-.06-.3-.07-.6-.14-.89a.52.52 0 0 0-.03-.1c-.03-.06-.06-.13-.13-.1-.08.03 0 .09 0 .13l.18 1.03.07.59c.02.1.03.2 0 .3-.03.06-.07.1-.14.1-.07-.01-.12-.05-.12-.11 0-.23-.1-.45-.1-.69 0-.31-.1-.61-.12-.92-.02-.25-.12-.47-.1-.72a.37.37 0 0 0-.09-.24c-.18-.24-.18-.53-.21-.81a1.03 1.03 0 0 0-.14-.49c-.03-.03-.05-.08-.1-.09-.05.04-.01.08 0 .11.07.2.15.39.14.6 0 .05 0 .1.03.14.06.17.1.33.07.51-.03.13.06.24.08.36.07.38.17.76.22 1.14.04.33.1.65.15.97l.01.07c.02.12 0 .23-.12.25-.12.03-.16-.1-.18-.18l-.1-.66c-.07-.5-.07-1-.2-1.5a4.49 4.49 0 0 1-.14-.88.63.63 0 0 0-.1-.32c-.01.13-.05.23-.02.33.04.16.03.33.04.5l.1.95c.08.56.22 1.12.21 1.69 0 .07 0 .15-.05.21-.03.04-.06.1-.12.1-.07 0-.1-.06-.11-.12-.07-.15-.07-.32-.09-.49 0-.06.01-.13-.04-.2-.06.1-.04.18-.03.27.02.12.02.25.01.37 0 .09-.04.19-.13.19-.11 0-.12-.1-.13-.2-.02-.3-.08-.62-.09-.94-.01-.54-.16-1.07-.13-1.6 0-.2-.1-.38-.08-.58-.04.13-.1.26-.08.4.08.37.03.75.1 1.13.05.28.02.57.06.86.04.27.04.55 0 .83-.01.05-.03.1-.1.11-.05.02-.09-.02-.12-.07-.04-.06-.07-.14-.05-.21.07-.27.03-.53 0-.8a8.85 8.85 0 0 1-.05-.98c0-.07.04-.18-.06-.18-.07 0-.05.11-.05.18 0 .25.03.5-.02.76a.91.91 0 0 0 .02.41c.05.18-.03.35-.04.52 0 .08-.07.15-.15.14-.08-.01-.06-.1-.06-.15v-.36c-.11.06-.13.14-.14.2a1.6 1.6 0 0 0-.04.35c.01.14-.07.25-.17.34-.13.14-.33.07-.39-.11a5.93 5.93 0 0 1-.15-.67.25.25 0 0 0-.07-.16c-.02.18 0 .33-.04.48l-.03.15c0 .04-.03.08-.08.07-.05 0-.07-.04-.08-.08l-.01-.09c0-.42-.03-.84.1-1.26.03-.11-.05-.22-.1-.35-.01.08-.06.16-.05.23a6.9 6.9 0 0 1-.1 1.52c-.02.06-.05.13-.13.11-.07 0-.1-.07-.11-.13a.55.55 0 0 1 0-.23c.06-.29.07-.59.11-.88.07-.42-.01-.85.14-1.26.06-.15-.02-.3-.12-.45l-.05.4c-.05.6-.08 1.2-.2 1.79-.02.15 0 .3-.06.46l-.03.08c-.03.08-.07.18-.19.15-.11-.03-.1-.14-.08-.23.02-.21.13-.4.15-.62l.03-.2c.05-.36.05-.72.12-1.09.04-.2.03-.43.05-.65.01-.24.06-.48.1-.73a.81.81 0 0 0 0-.44.7.7 0 0 0-.1.33c.01.07 0 .14-.02.2-.02.05-.05.1-.1.08-.07 0-.08-.06-.07-.1l.05-.6.07-.64c-.1.08-.09.16-.1.23l-.2 1.1c-.08.42-.2.83-.25 1.26-.04.4-.14.8-.19 1.2-.02.2-.16.4-.25.6a.1.1 0 0 1-.05.06.1.1 0 0 1-.08 0c-.07-.04-.13-.1-.1-.17.1-.3-.02-.63.15-.93.14-.22.15-.5.2-.75.03-.29.1-.57.16-.85.07-.32.1-.66.2-.97l.1-.42c.01-.03.04-.08 0-.12-.07.02-.07.08-.09.13-.1.25-.1.53-.26.76a.11.11 0 0 0-.02.07c.03.35-.13.66-.18 1-.03.25-.1.5-.1.75 0 .11-.04.2-.07.3-.07.34-.16.67-.24 1-.02.08-.08.16-.18.18-.07.01-.1-.05-.14-.1a.15.15 0 0 1-.01-.14c.14-.4.27-.82.35-1.24.06-.36.19-.7.23-1.08.03-.24.1-.49.24-.7l.02-.05c-.03-.17.03-.32.07-.5-.07.03-.08.08-.1.12l-.21.82c-.07.26-.17.5-.21.77-.09.46-.27.9-.34 1.36-.02.16-.1.31-.12.48 0 .06-.05.1-.1.15a.14.14 0 0 1-.17.02c-.06-.03-.06-.08-.05-.13.02-.11.03-.22.07-.32.12-.32.14-.68.3-1 .05-.1.01-.22.05-.33.07-.16.15-.32.17-.5.07-.37.23-.72.27-1.14a.93.93 0 0 0-.2.48c0 .15-.05.3-.09.43-.09.32-.17.65-.31.96-.04.1-.07.2-.06.31 0 .17-.05.32-.13.46-.07.13-.15.25-.18.4a.17.17 0 0 1-.07.1c-.04.02-.08.04-.13.02-.05-.03-.05-.07-.05-.12 0-.13.05-.24.12-.35.06-.1.1-.2.1-.32 0-.03.03-.07 0-.09-.05-.02-.08.02-.1.04l-.38.4-.37.46a.78.78 0 0 0-.14.2c-.04.1-.12.17-.2.22a.19.19 0 0 1-.22-.02c-.11-.08-.14-.2-.13-.31.01-.1.04-.19.07-.28.08-.22.07-.45.17-.69-.07.02-.07.07-.09.1-.07.15-.12.3-.25.4-.05.04-.1.08-.16.05-.07-.02-.06-.1-.06-.16 0-.05 0-.1.04-.14.27-.32.39-.7.58-1.06l.15-.28a.5.5 0 0 0 0-.42c-.06-.14-.05-.3-.07-.46 0-.04 0-.1-.05-.1-.06-.02-.08.04-.1.08-.22.42-.54.78-.8 1.18-.12.17-.21.36-.35.51-.07.08-.14.13-.23.06-.1-.07-.07-.18 0-.25.32-.31.52-.7.78-1.06.24-.32.47-.65.64-1 .06-.1.08-.2.06-.31-.1.13-.22.22-.28.34-.12.22-.28.4-.41.62-.24.4-.58.73-.84 1.12l-.2.22c-.08.07-.17.1-.26.02-.06-.06-.05-.2.03-.27.2-.15.36-.34.5-.54.24-.36.54-.68.8-1.02.29-.38.54-.77.83-1.15.15-.2.25-.43.4-.63.08-.11.18-.2.23-.34.01-.03.03-.05 0-.1-.12.11-.22.24-.31.37-.17.24-.3.5-.51.72-.11.11-.22.22-.28.37-.05.12-.16.19-.25.27-.27.24-.4.58-.67.83-.15.14-.32.28-.42.45-.16.26-.37.45-.56.66a.52.52 0 0 1-.09.08c-.06.04-.13.1-.2.03a.2.2 0 0 1-.05-.23.3.3 0 0 1 .06-.09c.41-.4.78-.84 1.16-1.28.2-.22.35-.48.55-.7.42-.47.8-.97 1.16-1.49l.27-.36c-.13.03-.19.12-.25.19-.14.17-.28.33-.47.45a.16.16 0 0 0-.06.07c-.07.24-.28.37-.41.56-.2.28-.44.54-.63.82-.18.26-.4.47-.6.71-.16.22-.37.4-.53.63l-.31.33c-.07.07-.15.09-.23.02-.08-.06-.03-.13 0-.2.08-.16.22-.26.34-.38.3-.28.59-.57.83-.9.25-.35.6-.64.8-1.04.06-.15.2-.24.32-.35a.05.05 0 0 0 .02-.03.05.05 0 0 0 0-.04c-.1.08-.2.14-.27.23l-.68.83c-.05.07-.1.14-.17.2-.3.24-.5.58-.74.87-.16.18-.32.36-.52.5-.07.06-.15.1-.23.01-.07-.08-.01-.15.04-.21.08-.1.18-.2.3-.27.14-.1.2-.27.34-.4.11-.1.21-.22.32-.34.03-.03.07-.07.03-.1-.04-.05-.07 0-.1.03-.26.23-.54.43-.82.64-.2.14-.38.3-.57.46-.11.1-.24.09-.36.06-.1-.01-.13-.12-.07-.23.16-.28.25-.6.45-.85.02-.04.08-.09.04-.13-.06-.04-.1.03-.13.06l-.23.19c-.07.04-.16.06-.22-.02-.06-.07-.02-.15.04-.2.28-.23.54-.48.83-.7.06-.04.13-.09.15-.17l-.02-.04a.33.33 0 0 0-.2.12 7.06 7.06 0 0 1-.95.82c-.07.02-.15.03-.2-.04a.18.18 0 0 1 .04-.24c.31-.14.5-.46.8-.62.12-.06.22-.17.31-.27.07-.07.15-.13.21-.21.14-.19.32-.34.5-.49.03-.02.08-.05.03-.1-.03-.04-.08-.01-.11.02a2.2 2.2 0 0 0-.23.24c-.23.29-.53.48-.82.68-.3.2-.57.44-.88.6a.3.3 0 0 1-.12.06c-.07 0-.14-.02-.18-.09-.04-.07.02-.12.06-.16.1-.12.25-.2.38-.27s.25-.15.37-.24c.25-.2.52-.35.76-.56.23-.2.44-.43.7-.6.07-.03.17-.07.13-.15-.02-.04-.11.03-.17.06-.5.28-.9.68-1.36 1-.26.18-.51.37-.81.5-.08.02-.15.06-.2-.03a.16.16 0 0 1 .04-.22l.25-.16c.27-.19.57-.3.82-.53.24-.2.48-.42.77-.58a.2.2 0 0 0 .1-.1c-.06-.04-.1 0-.13.02-.43.3-.85.6-1.3.87-.15.09-.32.15-.47.25-.08.05-.17.02-.22-.07-.05-.09.03-.14.1-.17.44-.25.85-.53 1.27-.8l1.36-.89c.17-.1.33-.24.51-.33.04-.01.08-.03.07-.08-.02-.04-.07-.03-.1-.03-.16.01-.27.11-.4.2-.37.25-.72.54-1.1.77a.11.11 0 0 1-.05.02c-.3.04-.47.27-.7.43-.11.09-.24.14-.36.21-.22.14-.4.32-.63.44a.53.53 0 0 0-.05.04c-.08.05-.16.07-.25.03a.15.15 0 0 1-.09-.17.23.23 0 0 1 .18-.18c.13-.04.25-.1.36-.19.3-.22.64-.38.95-.59l1.06-.7c.02-.02.06-.04.04-.08-.02-.04-.05-.01-.09 0-.23.05-.42.18-.62.3-.3.22-.6.48-.93.65-.3.14-.59.29-.87.46a.61.61 0 0 1-.14.05c-.1.03-.18 0-.22-.09-.03-.1.03-.16.1-.19.2-.06.38-.2.56-.29a.17.17 0 0 0 .1-.1l-.56.28-.13.07c-.08.03-.16.02-.2-.05-.05-.07-.01-.14.05-.2l.12-.08-.45-.05c-.13 0-.25-.01-.36-.09-.12-.1-.12-.19.02-.26a.99.99 0 0 1 .37-.14c.05 0 .12-.03.12-.09s-.07-.05-.12-.06c-.06-.02-.13-.03-.14-.12 0-.09.06-.14.13-.16.14-.05.29-.09.43-.12l.07-.01c.06-.02.15-.07.13-.13-.03-.08-.12-.03-.17 0-.2.09-.4.15-.62.18-.09.02-.2 0-.2-.1 0-.12.08-.19.18-.2.34-.04.64-.21.98-.25.04-.01.1-.03.09-.09-.02-.06-.09-.03-.14-.02a250.36 250.36 0 0 0-1.17.26.22.22 0 0 1-.09-.05c-.05-.04-.06-.1-.05-.16 0-.06.05-.1.1-.11.23-.06.45-.1.68-.13.33-.04.67-.1 1-.22.03-.02.1-.03.09-.08-.01-.06-.08-.04-.12-.03-.24.04-.48.08-.71.14-.22.06-.44.11-.67.13h-.15c-.1.01-.19-.04-.19-.15 0-.12.11-.16.2-.14.15.03.3-.04.45-.04l.1-.03c.23-.13.5-.13.75-.15.07 0 .2 0 .19-.06-.02-.08-.13-.05-.2-.03-.29.1-.6.03-.89.1-.18.04-.36.12-.55.11-.12 0-.21-.03-.23-.16 0-.14.08-.18.19-.2l.48-.04c.37 0 .73-.06 1.1-.1.36-.03.7-.1 1.07-.14.2-.01.4-.08.6-.12a.98.98 0 0 1 .2-.04c.08 0 .16-.03.22-.08-.08-.05-.15 0-.21 0-.32 0-.63.08-.95.13-.35.06-.7.09-1.05.12-.39.04-.78.01-1.15.18-.18.09-.4.05-.6.05-.05 0-.1-.03-.12-.1-.02-.08 0-.15.06-.2a.27.27 0 0 1 .23-.06c.12.03.25.02.37-.03.2-.08.42-.07.63-.09.5-.06.98-.13 1.48-.15.26-.02.5-.1.76-.16l-.55.03c-.59.03-1.17.13-1.75.17-.28.02-.57.04-.85.02-.18 0-.3-.07-.3-.17s.15-.18.33-.16c.6.07 1.19-.06 1.78-.1 0 0 .02 0 .03-.02-.42 0-.84-.04-1.24.02-.28.04-.53-.04-.8-.03a.12.12 0 0 1-.12-.07.12.12 0 0 1 0-.05c-.01-.07.04-.1.1-.12a.39.39 0 0 1 .22-.03c.36.1.72-.03 1.08-.02h.31c.3.04.6-.02.88-.06v-.04h-.3c-.37 0-.75 0-1.11-.1a.57.57 0 0 0-.29 0c-.22.05-.44.04-.66.04-.12 0-.19-.04-.18-.17 0-.12.1-.15.19-.14.33.06.66-.01 1 0 .2 0 .4.04.62.03.05 0 .1 0 .18-.05l-.59-.14c-.07-.02-.12.05-.18.06a2.1 2.1 0 0 1-1.14-.07c-.1-.04-.17-.09-.12-.21.03-.06-.01-.08-.06-.09-.12-.03-.24-.07-.36-.07s-.19-.08-.2-.18c-.03-.1.06-.14.13-.17.34-.17.7-.27 1.07-.4.04 0 .1 0 .1-.05 0-.07-.07-.05-.12-.06-.14 0-.3 0-.44-.02a.32.32 0 0 1-.16-.08c-.04-.03-.07-.07-.05-.12a.11.11 0 0 1 .11-.09c.23 0 .46-.03.68.03.16.04.31.06.47.05.1 0 .2 0 .3.04.12.04.24-.01.36-.04.03 0 .06 0 .06-.04s-.04-.04-.07-.05l-.55-.08c-.24-.03-.49-.02-.72-.11-.09-.04-.2-.05-.17-.17.03-.12.13-.12.23-.09.33.11.67.09 1 .14l.73.1c.15.03.3.03.45 0-.18-.05-.32-.2-.53-.15-.25.04-.5-.05-.76-.08a7.1 7.1 0 0 1-1.07-.22l-.2-.01a.21.21 0 0 1-.2-.15c-.03-.09 0-.16.1-.16.12-.01.24 0 .36.03.43.13.87.22 1.32.25a1.24 1.24 0 0 1 .62.2h.04c.17-.1.33-.02.5 0l.46.1a.3.3 0 0 0 .1 0c.05 0 .12 0 .12-.07 0-.06-.07-.06-.11-.06a5.54 5.54 0 0 0-.5-.08 4.42 4.42 0 0 1-.51-.09l-1.77-.36-.62-.16c-.09-.02-.1-.08-.1-.16 0-.09.05-.11.13-.12.2 0 .39.08.58.12.43.1.87.22 1.3.28.33.05.64.14.95.21.07.02.13.04.2.04.32.02.64.09.97.14.09.01.18.02.27-.02-.15-.01-.3-.08-.45-.08-.15 0-.3-.04-.45-.1-.37-.11-.75-.16-1.13-.25l-.46-.12-1.13-.27-.48-.11a.22.22 0 0 1-.06-.02C.83 9.78.75 9.73.8 9.62c.04-.1.12-.12.22-.08.48.15.97.23 1.45.36h.04c-.08-.1-.18-.11-.27-.15-.26-.1-.53-.16-.78-.27-.13-.05-.27-.05-.4-.11-.03-.02-.07-.03-.1-.06-.04-.04-.08-.1-.04-.17s.1-.09.17-.06c.4.14.8.24 1.2.4.07.03.15.03.22.06.6.25 1.25.34 1.87.52a.3.3 0 0 0 .22 0c-.07-.1-.17-.09-.26-.1a.35.35 0 0 1-.27-.14.1.1 0 0 1 .03-.14h.06c.07 0 .15.01.23-.03-.33-.18-.7-.28-1.07-.31ZM15 17.76c.1 0 .18-.04.26-.1.25-.16.49-.36.77-.49.18-.08.29-.26.42-.4a.56.56 0 0 0-.24.1c-.1.07-.21.14-.33.2-.06.02-.17.04-.2-.05-.05-.1.03-.14.1-.18a2 2 0 0 0 .46-.3l.17-.15c.27-.16.47-.4.73-.59.27-.18.44-.47.59-.77l.19-.42c.02-.06.08-.12.15-.1.07.03.07.1.07.17 0 .03-.01.07-.03.1-.17.34-.4.63-.58.96-.12.23-.33.39-.51.57-.06.06-.12.15-.05.2.07.07.11-.05.16-.1.03-.02.03-.06.04-.09.02-.05.06-.1.1-.11.12-.05.2-.14.27-.23.05-.06.1-.09.17-.04.07.06.1.02.14-.03.16-.2.28-.41.4-.64.01-.02.04-.05 0-.08h-.02c-.04.06-.06.16-.16.1-.09-.05-.03-.13 0-.2.1-.22.2-.45.27-.68.07-.23.08-.47.2-.68.06-.12.06-.25.06-.38l.03-.48c.01-.09.05-.18.16-.15.1.02.1-.03.1-.09.01-.25.07-.5.02-.75a1.6 1.6 0 0 1-.03-.38c.01-.25-.07-.49-.13-.72 0-.05-.02-.1-.09-.12l.07.5c.01.1.02.22 0 .34 0 .04-.01.07-.06.08-.04 0-.06-.03-.07-.07l-.06-.25c-.1-.36-.1-.75-.25-1.1-.02-.07-.05-.14 0-.2.07-.08.12 0 .2.03-.07-.27-.22-.48-.32-.7-.09-.2-.24-.36-.36-.55-.1-.15-.19-.32-.3-.46-.28-.36-.56-.71-.95-.97-.41-.27-.75-.65-1.25-.8-.31-.09-.57-.32-.9-.38-.2-.04-.42-.07-.62-.15-.24-.09-.5-.01-.75-.06-.49-.1-.97 0-1.45.05-.19.02-.39.03-.56.1-.48.16-.97.3-1.42.54-.38.22-.73.47-1.1.72-.25.17-.45.42-.66.65-.23.27-.45.54-.63.86-.17.31-.37.62-.5.96a5.7 5.7 0 0 0-.41 1.6l-.06 1.38c0 .38.11.75.18 1.12.06.28.18.54.28.8.18.53.5.98.8 1.44.12.2.34.35.48.55.32.43.74.74 1.17 1 .44.27.87.53 1.38.68.49.14.97.31 1.49.35.6.03 1.2.05 1.8-.1.12-.03.26-.02.37-.08.28-.13.59-.17.86-.3.19-.1.43-.1.49-.36 0-.04.07-.06.11-.08.12-.07.24-.12.34-.23-.25.09-.45.25-.69.36-.18.09-.35.2-.56.23-.07.01-.16.03-.2-.07-.02-.1.05-.12.13-.16.1-.05.24-.05.32-.16Zm1.84 5.09c.03-.13-.03-.2-.06-.27-.1-.2-.18-.42-.32-.59-.24-.3-.54-.53-.73-.88a1.23 1.23 0 0 1-.14-.73c.03-.35.02-.69-.18-1l-.21-.3c-.1-.18-.3-.24-.48-.15-.16.08-.33.13-.5.2-.05.02-.06.05-.02.08.1.11.18.24.29.35.26.25.4.57.48.91.06.23.06.47.13.68.13.39.39.67.78.83.23.1.47.2.65.41.11.14.19.3.31.46Zm-14.87-15v.03c.07.03.15.08.23.08.32.01.64.09.96.07.33-.01.67 0 .97.16.05.03.1.04.16.05.29.05.52.22.74.39.24.18.49.31.78.39.18.04.36 0 .54.06.13.04.26-.02.3-.15l.1-.19c.06-.09.14-.2.06-.3a.58.58 0 0 0-.36-.25c-.25-.04-.48.05-.73.02a2.95 2.95 0 0 1-.95-.27c-.4-.2-.83-.34-1.3-.26-.24.04-.48.05-.72.11-.26.07-.52.09-.78.05Zm18.73 4.79.66.02c.25 0 .5.08.74.01a.9.9 0 0 1 .4-.02c.41.07.83.08 1.25.08h.22a.06.06 0 0 0 .07-.04c0-.03-.03-.04-.05-.05a1.37 1.37 0 0 0-.24-.06c-.28-.06-.58-.07-.86-.15-.44-.1-.86-.23-1.3-.3-.45-.07-.9-.08-1.33-.23-.25-.1-.52-.09-.77-.18-.08-.03-.12.02-.11.09.03.25.03.5.04.76 0 .1.04.13.13.07.06-.04.12-.02.18-.03.34-.04.67.07.97.03Zm-.44 8c-.01-.05-.05-.09-.09-.12l-.42-.34c-.43-.36-.74-.84-1.12-1.25a22 22 0 0 1-.61-.68c-.18-.21-.37-.4-.55-.62-.13-.16-.3-.16-.47-.02-.14.13-.23.3-.4.38-.14.06-.14.12-.02.2l1.1.73c.11.08.24.13.35.22.3.22.6.44.9.64l.56.34c.17.11.33.26.49.38l.2.17c.02.02.07.04.08-.03ZM23 8.31a1.31 1.31 0 0 0-.66.03c-.25.1-.48.2-.74.21-.2.01-.4.03-.59 0-.27-.05-.55-.13-.82-.14a2.1 2.1 0 0 0-1.24.25c-.35.22-.44.29-.23.65l.01.02c.14.28.14.27.41.12.25-.14.49-.31.78-.36.26-.05.51-.06.77-.03.54.09.98-.17 1.43-.38.15-.07.28-.18.45-.23.14-.05.3-.06.43-.14Zm-3.22-3.76-.03-.03a.37.37 0 0 0-.07.02c-.33.16-.6.4-.9.62l-.62.46c-.3.22-.61.46-.93.67-.13.08-.28.15-.4.26-.11.1-.13.2-.02.3l.45.43c.09.1.17.1.26-.01l.35-.43c.2-.28.45-.5.66-.77.28-.36.57-.71.87-1.06l.38-.46ZM6.26 14.9c0-.09-.04-.15-.07-.22-.1-.18-.17-.38-.21-.59-.02-.08 0-.2-.11-.22-.12-.03-.17.07-.23.15a.47.47 0 0 0-.06.09c-.24.48-.61.84-1.14 1a2.9 2.9 0 0 0-1.27.8c-.31.32-.56.7-.85 1.04-.02.03-.06.07-.02.1.04.03.07-.02.1-.04.1-.08.18-.2.26-.3.23-.26.52-.45.77-.69.17-.16.36-.32.59-.4.4-.15.82-.32 1.27-.32.3 0 .59-.09.86-.23.07-.04.12-.09.11-.17Zm2 8.06.04-.06c.11-.13.11-.31.21-.46.06-.09.14-.18.14-.3.01-.21.04-.43 0-.62-.07-.3-.03-.59.05-.87.08-.3.25-.58.48-.8.12-.1.23-.24.3-.4.1-.21.11-.45.17-.67.04-.18-.04-.28-.21-.36-.08-.04-.17-.05-.24-.11-.07-.05-.11-.02-.13.05a.62.62 0 0 0-.01.15c0 .31-.11.59-.24.86-.14.26-.34.5-.46.77-.06.14-.17.26-.16.43.01.39.1.77.19 1.14.04.2.09.37.03.56-.05.17-.07.35-.15.52-.03.04-.05.1-.02.17Zm14.66-5.25c.04 0 .08.02.1-.02 0-.04-.04-.06-.07-.08-.3-.13-.6-.3-.93-.36-.41-.08-.77-.2-1.1-.5l-1.08-1.09c-.2-.2-.44-.37-.73-.45-.21-.06-.33.02-.4.22-.06.13-.11.26-.2.37-.03.04-.07.08-.04.13.03.04.08.03.12.03.23-.03.43.05.64.12.45.14.81.43 1.16.73.34.3.73.44 1.16.51a4.08 4.08 0 0 1 1.37.4ZM12.4 23.57c-.05-.29 0-.57-.02-.85-.04-.68.05-1.36-.05-2.04-.06-.4-.03-.81-.04-1.22 0-.19-.05-.25-.23-.27h-.49c-.09 0-.12.05-.1.13l.16.75c.07.23.13.47.17.7.06.3.07.6.13.89.11.48.17.98.35 1.44.06.15 0 .33.12.47Zm2.39-17.82c.1-.01.18-.04.22-.14.1-.2.16-.4.28-.6.12-.19.2-.4.38-.57.22-.21.37-.5.41-.8.04-.27.07-.53.06-.8 0-.47.1-.92.36-1.32.02-.04.06-.1 0-.13-.05-.04-.1.01-.12.06l-.15.27a1.7 1.7 0 0 0-.26.83c0 .2-.01.38-.03.57-.01.2-.09.4-.22.54a3.8 3.8 0 0 1-.53.52c-.17.13-.37.25-.5.44-.16.25-.23.55-.46.77-.04.04-.08.12 0 .17.19.09.38.14.56.19Zm-12.96 6.4c.17 0 .33.06.47.03.25-.06.5-.06.75-.07.63-.03 1.26-.06 1.9-.07l.65-.03c.1 0 .14-.04.16-.14.04-.2.06-.4.06-.6 0-.2-.02-.23-.22-.17-.19.05-.37.14-.56.16-.49.08-.95.25-1.43.39-.5.14-1 .33-1.54.4a.38.38 0 0 0-.24.1ZM12.18 1.39c-.03.31-.14.58-.18.87-.06.55-.14 1.1-.25 1.63-.09.46-.23.91-.28 1.38-.01.12.02.17.13.18.17 0 .32-.03.48-.07.16-.03.2-.12.2-.27.02-.42-.05-.83-.02-1.25.01-.3-.06-.58-.02-.88.03-.2.03-.4 0-.6a2.39 2.39 0 0 1 0-.78c.01-.07.03-.13-.06-.21ZM4.82 4.17c0 .06.04.09.07.12.26.25.58.42.84.68l.89.88 1.22 1.18c.04.05.1.1.17.06.17-.08.31-.18.43-.32.05-.04.07-.1.02-.15a1.66 1.66 0 0 0-.25-.21L7.59 6c-.24-.18-.49-.34-.74-.5-.34-.22-.68-.43-1-.68-.27-.2-.59-.34-.84-.57a.39.39 0 0 0-.2-.1Zm3.98-.85c0 .17.04.33.08.47.05.18.03.36-.02.52-.16.62-.19 1.22.14 1.8.05.1.18.18.27.13a4 4 0 0 0 .35-.2c.06-.04.07-.1.04-.15-.13-.25-.2-.52-.21-.8v-.48c.02-.22-.04-.44-.15-.62-.12-.2-.27-.37-.38-.57a.17.17 0 0 0-.12-.1ZM7.45 16.91v-.05c-.11-.15-.2-.32-.35-.44-.06-.05-.13-.02-.16.05-.06.16-.18.29-.25.44-.1.26-.23.51-.37.75-.15.27-.29.54-.46.8-.2.3-.39.63-.58.94-.04.07-.13.16-.07.21.1.06.14-.06.18-.13.23-.33.49-.64.73-.96.17-.21.38-.39.54-.6.22-.3.43-.6.7-.84.05-.04.08-.1.1-.17Zm13.35 3.98c-.04-.13-.05-.13-.1-.2-.2-.35-.56-.56-.81-.86l-.25-.32c-.32-.36-.65-.7-.95-1.1a5.65 5.65 0 0 0-.54-.59 5.2 5.2 0 0 1-.49-.53c-.02-.03-.03-.08-.08-.05-.03.01-.02.06-.02.1.04.13.12.24.22.33.3.31.62.6.9.93.25.31.51.6.79.9.23.24.42.53.7.74.13.11.25.25.34.4.07.11.16.17.29.25Zm3.32-10a2.66 2.66 0 0 0-.85.05c-.38.1-.78.08-1.16.14-.41.05-.81.15-1.22.18-.26.01-.51.04-.77.07-.06.01-.12.01-.17.07 1.4 0 2.8-.23 4.17-.5ZM17.4 23.32c.06-.04.05-.1.04-.14-.08-.3-.16-.6-.31-.87-.18-.3-.41-.55-.63-.82a2.57 2.57 0 0 1-.45-.92c-.02-.06-.02-.14-.1-.11-.09.02-.07.1-.05.15l.02.07c.12.52.46.9.78 1.29.25.31.51.62.6 1.03.02.11.03.23.1.32Zm4.21-13.4c-.03-.04-.08-.02-.13 0-.25.05-.5.12-.76.14-.2.01-.42.02-.63.09-.23.07-.48.11-.67.28-.06.06-.17.15-.11.22.05.07.16-.01.23-.06.29-.2.62-.29.96-.33.35-.04.67-.16 1-.25a.14.14 0 0 0 .11-.08ZM2.04 12.44c.1.03.2.04.3.04.47 0 .93-.01 1.4.01.55.04 1.11.07 1.67 0 .08-.02.23.04.24-.06 0-.08-.17-.07-.27-.06-.4.01-.8.05-1.2.05l-1.88-.03c-.08 0-.16 0-.26.05Zm19.69 3.97a.16.16 0 0 0-.08-.1c-.08-.06-.18-.1-.26-.18l-.66-.62a3.71 3.71 0 0 0-1.33-.82c-.05-.02-.11-.03-.14.03-.02.06.04.08.09.1.12.04.26.08.38.14.37.15.67.4.96.67l.72.67.2.14c.05.03.1.03.12-.03ZM12.56 1.69c-.04.25-.02 3.44.02 3.56.01-.18.08-.31.07-.47-.01-.4.04-.8 0-1.2-.02-.21.02-.44-.01-.65-.06-.35-.02-.7-.05-1.04 0-.06.01-.12-.03-.2Zm-.02 21.04c-.02.19.02.34.03.5 0 .02 0 .05.04.05.03 0 .03-.02.04-.05v-.13a2.2 2.2 0 0 1-.02-.5c.04-.58.03-1.15.04-1.72 0-.44-.02-.88 0-1.32 0-.05 0-.1-.02-.14 0-.03 0-.06-.03-.06-.04 0-.04.03-.05.06v.07c-.01 1.1.02 2.18-.03 3.24Zm7.88-13.36c-.27-.03-.52.04-.77.1-.17.05-.34.11-.48.22-.05.05-.12.1-.06.18.05.07.1.01.16-.02.38-.21.78-.33 1.22-.34.16 0 .31.01.47-.04.05-.01.13 0 .12-.08-.01-.07-.1-.05-.15-.05-.17 0-.34.04-.51.03Zm.13 6.47c.14.19.25.38.42.54.34.31.71.54 1.17.6.21.04.42.1.62.18.08.04.15.09.26.08a.46.46 0 0 0-.18-.17c-.15-.07-.3-.13-.47-.16-.15-.03-.31-.05-.46-.1-.3-.08-.54-.25-.77-.44l-.59-.53Zm-.72 3.47c-.11-.2-.26-.35-.4-.52l-.82-.94c-.2-.22-.36-.48-.58-.69-.03-.02-.06-.08-.1-.04-.04.04 0 .08.02.11l.75.91c.2.25.43.48.64.72.15.17.28.35.49.45Zm-6.9 2.81c.06-.21.05-.44.06-.66.02-.62 0-1.25 0-1.87 0-.06 0-.12-.05-.17-.07.14-.1 2.5 0 2.7Zm3.48-19.08c-.04.08-.04.18-.05.27-.03.31-.08.62-.22.9-.13.3-.37.51-.52.8-.12.21-.3.4-.33.66 0 .05-.04.12.02.13.05 0 .08-.06.07-.1 0-.13.07-.22.13-.32.1-.16.22-.31.32-.48l.33-.57a2.2 2.2 0 0 0 .27-1.28.04.04 0 0 0-.02-.01Zm5.74 10.65c.23.1 2.04.36 2.17.31a5.97 5.97 0 0 0-2.17-.3Zm-8.02 9.9c-.03-.85-.12-1.7-.28-2.53-.05.86.11 1.7.28 2.53ZM9.39 21c.12-.14.16-.3.26-.4.32-.39.57-.82.75-1.29.04-.1.1-.2.08-.3 0-.04 0-.08-.05-.08a.05.05 0 0 0-.05.04c-.05.22-.2.4-.24.62-.06.26-.2.5-.38.69-.13.14-.24.3-.33.46-.04.07-.07.15-.04.25Zm3.83-.97v.26l.01.4c0 .05.02.1.06.1.05 0 .04-.05.04-.08l.04-.37c.04-.28 0-.57.1-.84.01-.04.05-.09 0-.11-.06-.03-.13-.08-.2-.06-.06.02-.05.08-.05.12v.58Zm-5.55-2.74c-.29.2-1.77 1.94-1.82 2.14.15-.24.39-.39.55-.6.3-.38.61-.73.94-1.07.13-.14.3-.25.33-.47Zm8.44 2.24a.07.07 0 0 0-.03.07c.05.37.07.75.18 1.1.08.25.2.49.4.65.03.02.07.06.1.03.04-.04-.01-.07-.03-.1a1.8 1.8 0 0 1-.38-.82c-.04-.32-.18-.61-.24-.93Zm5.03-4.03a.7.7 0 0 0-.19-.3 3.08 3.08 0 0 0-1.52-.78c-.04 0-.1-.02-.11.03-.02.05.04.05.08.08.12.07.26.04.38.09.33.11.62.3.91.49.16.1.27.26.45.39Zm-4.41-9.82c.42-.58.61-1.26.93-1.87-.1.08-.15.2-.22.3-.1.2-.14.42-.28.6-.1.14-.19.3-.26.46a.51.51 0 0 1-.12.17c-.11.09-.12.2-.05.34Zm-3.78-.76c.05-.03.04-.07.04-.1.02-.45-.02-.91 0-1.37 0-.06 0-.16-.09-.16-.06 0-.06.1-.07.16v.13c-.02.35.06.7.06 1.04 0 .1.02.2.06.3Zm2.7.98a.41.41 0 0 0 .16-.21c.1-.31.27-.58.44-.85l.29-.46c.02-.04.08-.1.01-.13-.05-.03-.07.04-.09.08-.1.2-.23.4-.38.57-.24.29-.35.63-.43 1Zm-9.3 9.5c-.1 0-.1 0-.2.05a2.5 2.5 0 0 1-1.15.28c-.13 0-.26 0-.4.02-.2.04-.52.2-.6.32l.07-.01.07-.04c.26-.17.56-.22.86-.2.38 0 .72-.11 1.06-.23a.7.7 0 0 0 .3-.19Zm.19 3.7A8.59 8.59 0 0 0 8 17.54c-.16 0-.22.11-.3.21-.22.32-.5.58-.74.9-.12.16-.3.27-.42.46ZM9.26 3.32c-.04-.06-.1-.11-.14-.18a2.6 2.6 0 0 1-.53-1.26c0-.04 0-.1-.06-.1-.05 0-.04.06-.04.1a2.02 2.02 0 0 0 .78 1.44ZM7.67 7.39a.26.26 0 0 0-.08-.1 8.45 8.45 0 0 1-.9-.86c-.04-.04-.1-.12-.15-.07-.04.05.03.11.07.15.32.26.58.58.87.87.03.03.06.07.11.07s.08 0 .08-.06Zm9.3-1.49c.37-.45.57-.99.82-1.5-.3.48-.61.96-.82 1.5ZM4.58 9.17l-.03.08c.44.38.93.59 1.53.46-.52-.1-1.08-.12-1.5-.54Zm-.21 7.05c.15-.03.27-.11.4-.1.42.02.83-.05 1.22-.18.18-.06.33-.16.5-.28-.12.01-.12.02-.22.07-.31.15-.63.27-.99.27-.26.01-.51.05-.76.12a.25.25 0 0 0-.15.1Zm5-12.79c-.04.06-.01.1.01.13.3.4.37.88.36 1.37 0 .1.02.22.07.32.02-.09.09-.17.05-.25-.1-.24-.06-.49-.09-.73a1.7 1.7 0 0 0-.4-.84Zm7.31 16.48c-.08-.26-.15-.55-.29-.82-.03-.07-.06-.2-.16-.17-.05.02.01.15.04.23.1.26.27.5.27.8 0 .05.02.12.08.12.07-.01.05-.09.06-.16Zm2.2-2.23c-.12-.17-.2-.35-.34-.5-.13-.14-.2-.32-.34-.45-.04-.03-.1-.07-.14-.03-.06.05 0 .1.03.13l.6.7c.04.05.1.13.19.15Zm-.7-9.44c.08-.02.08-.07.1-.1.11-.2.22-.4.39-.56.17-.15.28-.36.33-.59-.3.4-.66.74-.83 1.25Zm.36-1.73c-.17.3-.44.5-.63.77l-.2.22c-.03.04-.04.08 0 .12.04.04.07 0 .1-.03l.03-.03c.26-.27.44-.6.68-.9.02-.03.06-.06.02-.15ZM6.6 15.95c-.5.2-1 .33-1.53.41.33.1 1.34-.17 1.53-.41Zm9.38-9.97c0 .03-.02.07.01.08.04.02.06-.01.07-.04l.06-.15c.05-.2.13-.37.23-.53l.25-.42c.01-.02.03-.04 0-.06-.02-.02-.04 0-.06.02-.18.22-.33.47-.44.73-.05.12-.08.25-.12.37Zm2.29 1.51c.05 0 .07-.03.09-.05l.26-.34.37-.5c.03-.04.08-.1.03-.13-.05-.04-.09.03-.12.07l-.48.63c-.06.1-.1.2-.15.32Zm2.77 5.95v-.03c-.08 0-.16-.02-.23-.03-.37-.04-.75-.03-1.12-.08-.1-.01-.21.02-.3-.07-.02-.04-.04 0-.05.03-.03.08.02.13.1.13.18 0 .36-.03.52 0 .28.06.56.01.84.04h.24Zm1.38-1.55c.58.04 1.13-.05 1.67-.07a6.49 6.49 0 0 0-1.67.07ZM10.05 4.26c-.02.41.12 1.31.23 1.4-.05-.47-.09-.94-.23-1.4Zm10.33 5.51c-.03-.04-.07-.03-.1-.03-.44-.03-.8.1-1.08.45-.02.02-.07.05-.04.09.04.03.07-.02.1-.04.2-.24.47-.33.76-.4.11-.04.24-.03.36-.07ZM4.13 12.83c.13.01.23.05.34.03.17-.03.34-.03.5 0 .16.02.3.02.46 0 .03-.01.08-.01.08-.05 0-.06-.06-.05-.1-.05h-.1c-.34 0-.67.02-1 .03a.33.33 0 0 0-.18.04Zm.96-2.9a.06.06 0 0 0 .04.07c.18.09.36.17.56.19h.2c.05 0 .1-.04.1-.1 0-.06-.06-.06-.1-.07l-.23.01c-.16.03-.3.03-.43-.07-.04-.02-.08-.06-.14-.03Zm5.6-6.26c-.05.07-.03.12-.03.16 0 .3.1.58.1.87 0 .09.04.14.11.2-.05-.4-.07-.8-.17-1.23ZM20.37 13c-.25-.05-.5-.1-.75-.06a.15.15 0 0 1-.12-.03c-.03-.03-.07-.04-.1 0a.13.13 0 0 0-.02.13c.02.06.06.02.1.01l.2-.01c.23 0 .46.01.7-.04ZM4 17a4.9 4.9 0 0 0-1.24.73c.43-.22.83-.5 1.24-.74Zm5.43 3.23c-.29.14-.46.58-.37.89.04-.32.23-.57.37-.89Zm10.78-6.51a.18.18 0 0 0-.07-.02c-.22.03-.45.01-.68.03-.04 0-.09.02-.13.04-.02.02-.04.04-.03.08a.05.05 0 0 0 .06.02c.29-.02.57-.05.85-.15ZM14.35 2.48c-.1.48-.21.96-.2 1.45.03-.49.23-.95.2-1.45Zm-4.33 16.33c-.05.02-.05.07-.05.1a.78.78 0 0 1-.11.46l-.14.28c-.03.06-.05.12 0 .22.19-.35.37-.66.3-1.06Zm12.16-5.76a7.11 7.11 0 0 0-1.43-.04c.48.04.95.07 1.43.04ZM6.69 7.09a.05.05 0 0 0 .02.06c.12.09.2.21.27.34.06.1.13.18.21.24.04.03.08.06.12.02.05-.04 0-.07-.02-.1-.16-.22-.39-.35-.54-.56a.04.04 0 0 0-.06 0Zm3.74 12.78.03.03.06-.03c.22-.19.21-.47.3-.71a.05.05 0 0 0-.02-.05c-.04 0-.05.03-.06.05-.03.12-.06.23-.12.34-.08.12-.13.25-.2.37ZM6.27 6.07a7.56 7.56 0 0 0-1-1.04c.32.37.67.7 1 1.04Zm12.6 7.05c-.17.26-.22.61-.13.86a4 4 0 0 0 .12-.86ZM6.5 7.48c.1.2.18.4.39.5.02.01.05.04.07.02.04-.03 0-.07-.01-.09L6.6 7.5c-.02-.02-.04-.03-.09 0ZM5.93 9.4h.14c.04 0 .1.01.1-.05 0-.04-.07-.03-.1-.02-.32.06-.61-.04-.9-.17-.02-.01-.06-.05-.08 0-.02.03.03.05.06.07.24.13.5.16.78.17Zm.41-2.7c-.11-.24-.3-.42-.51-.56.1.23.29.43.51.56Zm15.08 2.9.02.03c.3-.04.56-.18.82-.31a.03.03 0 0 0 .02-.03v-.02c-.03-.03-.06-.02-.08 0l-.36.16c-.14.04-.28.1-.42.16ZM5.7 19.56l-.04-.03c-.2.26-.47.46-.65.74l.06.04.63-.75Z" fill="#A47312"/><path d="M11.2 21.8c-.06.34-.06.7-.13 1.06-.1.46-.16.93-.24 1.4l-.06.22c-.02.06-.05.11-.13.1-.07-.01-.1-.07-.12-.14a.2.2 0 0 1 .01-.08c.08-.25.07-.52.14-.77a.28.28 0 0 0-.02-.2.12.12 0 0 1 0-.09c.13-.35.2-.7.24-1.07l.06-.48c0-.1.06-.21.16-.2.14 0 .07.15.1.26ZM3.32 9.34c.13.1.3.1.45.16.06.02.11.05.14.11.02.05.02.1-.01.14-.04.04-.08.02-.12.01-.46-.12-.93-.22-1.38-.4l-.02-.01c-.39.02-.7-.23-1.05-.3a.5.5 0 0 1-.28-.16c-.07-.08-.04-.16.07-.18.12-.02.22.03.33.07.35.15.72.26 1.1.35l.33.1c.14.07.29.1.44.1ZM3.18 4.5c.13 0 .2.04.26.1.21.27.5.45.74.68.15.15.29.3.42.46.04.04.07.09.02.14-.04.06-.1.03-.15 0a6.92 6.92 0 0 1-1.34-1.21c-.03-.04-.07-.07-.04-.13a.1.1 0 0 1 .1-.04ZM23.09 10.48c-.12 0-.24 0-.36.03-.07.02-.13.02-.16-.06-.02-.09.02-.14.09-.18a.17.17 0 0 1 .07-.02c.32 0 .63-.12.95-.15.1 0 .2-.05.3-.1a.35.35 0 0 1 .2-.03c.09.01.16.05.17.15.01.09-.04.14-.12.17-.12.06-.26.1-.4.1-.24.03-.49.1-.74.09ZM7.86 21.87c0 .12-.08.23-.16.33-.22.29-.36.61-.54.92-.05.08-.09.15-.16.2-.07.05-.14.07-.2 0-.07-.06-.1-.13-.04-.21.13-.19.28-.37.39-.57.11-.2.29-.37.4-.58a.71.71 0 0 1 .14-.17c.04-.03.07-.07.11-.05.06.02.06.07.06.13ZM23.02 16.17c.18 0 .3.13.47.16.12.03.24.09.36.13.06.02.11.05.16.1s.07.1.04.18c-.03.07-.1.1-.17.08a.72.72 0 0 1-.17-.05l-.72-.33-.03-.01c-.07-.04-.15-.09-.13-.18.03-.1.12-.08.2-.08ZM2.92 4.76c.07.02.14.02.19.1.17.26.44.42.67.64l.06.05c.06.06.07.12.02.18s-.11.06-.18.02c-.13-.08-.22-.2-.33-.29l-.47-.39a.23.23 0 0 1-.09-.19c0-.07.05-.12.13-.12ZM21.44 20.55c-.04-.25-.24-.37-.42-.5-.09-.07-.14-.15-.15-.25 0-.1.04-.14.14-.1l.09.04c.22.17.42.37.6.58a.19.19 0 0 1 0 .24c-.06.07-.13.04-.19 0a.37.37 0 0 0-.07 0ZM2 6.6c.03.01.09 0 .11.03.17.16.4.23.58.35.08.06.19.12.13.22s-.18.05-.26 0c-.23-.1-.43-.28-.67-.4a.1.1 0 0 1-.06-.12c.03-.08.1-.07.18-.08ZM4.06 5.85c.2.09.4.2.54.42a.1.1 0 0 1-.01.13c-.05.04-.09.02-.13-.01-.16-.12-.3-.26-.47-.36a.11.11 0 0 1-.06-.13c.02-.05.06-.06.13-.05ZM.79 11.24c-.08-.02-.2-.02-.2-.13 0-.08.07-.13.16-.12.09 0 .18.02.19.13 0 .08-.07.11-.15.12Z" fill="#A47312"/><path fill-rule="evenodd" clip-rule="evenodd" d="M17.13 11.11c.23-.07.26-.11.26-.34 0-.15-.06-.25-.17-.36-.13-.11-.28-.2-.43-.27a3.98 3.98 0 0 1-.22-.13 1.4 1.4 0 0 0-.74-.22h-.12a1.86 1.86 0 0 0-.98.17l-.03.01a.07.07 0 0 1-.08-.02v-.03a.04.04 0 0 1 .01-.03l.17-.14c.14-.13.28-.26.52-.24.16.02.31 0 .43-.15.09-.1.22-.06.24.08.02.1.1.15.19.11.1-.04.16-.05.25 0 .03.02.07.02.1.01a.42.42 0 0 1 .35.06c.06.03.12.05.19.06h.01c.06.02.14.04.17-.04a.2.2 0 0 0-.03-.23 2.53 2.53 0 0 0-1.66-.82c-.49.04-.96.13-1.37.44a2.2 2.2 0 0 0-.82 1.02c-.14.42-.22.85-.23 1.3-.01.41.02.83.05 1.25l.01.13c.01.2.03.4.3.45.12.02.19.14.18.28-.01.12-.1.12-.17.13h-.05a.82.82 0 0 0-.49.23.36.36 0 0 1-.42.08 2.07 2.07 0 0 1-.35-.21 1.94 1.94 0 0 0-.38-.22c-.12-.04-.13-.13-.08-.23a.43.43 0 0 0 .05-.23.16.16 0 0 0-.12-.16c-.07-.02-.12.02-.16.07-.08.12-.15.26-.18.4-.06.2-.02.34.13.46l.18.15.47.37c.15.1.23.22.2.41 0 .04.01.08.03.11.04.12.12.14.22.06.07-.06.1-.14.1-.23a.12.12 0 0 1 .09-.12h.05c.08 0 .08.06.08.11s.02.1.04.14l.02.03c.02.05.05.11.13.1.09-.02.14-.09.15-.17v-.07c.03-.15.08-.25.25-.27.15-.02.3-.1.37-.24.06-.11.16-.16.27-.21.2-.08.35-.22.38-.44a.57.57 0 0 0-.25-.54.87.87 0 0 1-.29-.4c-.05-.14-.03-.28-.02-.42l.01-.2c0-.4.09-.76.32-1.08.08-.11.16-.14.28-.07a.8.8 0 0 1 .25.25c.27.35.77.46 1.14.19a.4.4 0 0 1 .1-.06c.19-.07.28-.2.32-.4.03-.23.04-.23.25-.13.22.1.24.16.11.36-.03.05-.05.1-.01.16s.1.05.16.03l.14-.04.13-.05Zm-1.82-.43c.12 0 .21-.08.21-.17 0-.1-.1-.17-.21-.17-.12 0-.21.07-.21.17s.1.17.21.17ZM10.12 9.7c.07.04.14.09.22.12-.08-.03-.16-.03-.25-.03l-.18-.01a.94.94 0 0 0-.46.02c-.11.03-.23.04-.35.06-.1 0-.18.02-.27.04-.27.05-.5.14-.72.3-.31.23-.31.4-.01.65l.02.02c.13.1.2.07.22-.09.02-.15.13-.22.26-.26.12-.03.17.02.15.13 0 .07 0 .14.03.2.15.19.3.37.56.43l.15.02c.1 0 .19.01.25.06.16.13.32.11.5.09a.2.2 0 0 1 .12.01c.18.1.35.05.53-.03a3.17 3.17 0 0 0 .37-.2c.21-.11.27-.32.13-.5l-.14-.2c-.11-.17-.22-.34-.4-.43-.03-.02-.07-.04-.04-.08.02-.03.05-.02.08 0l.08.04c.17.09.34.18.46.34l.03.05c.05.07.1.15.17.18.12.07.14.15.14.27 0 .09.05.16.14.16.1 0 .12-.07.14-.15a.9.9 0 0 0 0-.4c0-.1-.02-.2-.01-.29 0-.03-.02-.06-.04-.09a1.54 1.54 0 0 1-.16-.24l-.07-.12a1.1 1.1 0 0 1-.06-.11c-.03-.07-.06-.14-.12-.2l-.03-.02c-.18-.18-.36-.36-.6-.47-.4-.2-.83-.31-1.27-.34a3.01 3.01 0 0 0-1.53.4c-.1.04-.18.1-.26.17-.1.08-.18.15-.29.2-.05.02-.07.07-.1.11l-.02.04a.1.1 0 0 0 0 .12c.04.04.08.07.13.05l.12-.06.17-.08a2.46 2.46 0 0 1 .47-.2c.1-.03.21-.05.3-.12.1-.07.24-.08.33 0 .1.08.21.08.33.08h.33c.05 0 .1 0 .1.06 0 .1.07.14.15.18l.2.11Zm.39 1.03c.04-.17.1-.22.3-.22.1 0 .17.1.11.17l-.07.1c-.12.14-.23.28-.39.37-.03.02-.08.05-.12.01-.03-.03 0-.06.02-.1l.01-.02c.06-.1.1-.2.14-.31Zm-1.02-.1c.12 0 .22-.08.22-.17 0-.1-.1-.18-.22-.18s-.21.08-.21.18c0 .1.1.17.21.17Z" fill="#A47312"/><path d="M13.32 16.9c-.07.01-.13 0-.2-.02-.16-.07-.32-.15-.5-.16a.37.37 0 0 1-.18-.06c-.32-.2-.68-.34-1.06-.38a.88.88 0 0 1-.52-.24.34.34 0 0 0-.25-.1c-.13 0-.19-.08-.18-.2 0-.16.05-.32.11-.46.06-.13.19-.14.28-.04v.02c.08.07.05.22.17.24.16.03.31 0 .47-.04.15-.03.28-.1.41-.18.11-.06.24-.1.34-.17a.26.26 0 0 1 .2-.04c.2.04.38.08.58.03.3-.08.56.06.8.24.15.1.3.19.5.2.17.02.3-.05.38-.2.1-.16.16-.16.28 0l.06.06c.17.24.08.49-.2.52a.82.82 0 0 0-.43.17c-.13.1-.32.08-.46.18l-.3.2c-.08.06-.06.16-.08.25-.03.13-.09.2-.22.19Zm.33-.88a.26.26 0 0 0-.2-.01c-.31.08-.62.05-.92 0l-.4-.07c-.05 0-.12 0-.13.05-.01.06.06.06.1.07l.23.08c.26.11.53.2.82.06.1-.05.21-.08.32-.1.06 0 .13 0 .18-.08ZM12.65 16.99c.32.02.59.04.83.15a.6.6 0 0 1 .21.14c.14.15.12.28-.03.42-.09.07-.25.03-.35-.1a.3.3 0 0 1-.06-.1c-.04-.18-.17-.23-.33-.25-.2-.02-.39 0-.57.08a.97.97 0 0 1-.2.06c-.07 0-.14.02-.17-.07a.14.14 0 0 1 .03-.16 1.38 1.38 0 0 1 .34-.13c.12-.02.24-.05.3-.04ZM18.5 12.54c-.04.19-.02.37 0 .54 0 .36-.16.69-.18 1.04 0 .07-.03.16-.12.15-.08 0-.09-.1-.1-.17 0-.07.02-.15.04-.22.09-.22.11-.45.17-.67.05-.18-.03-.37-.01-.55v-.26c0-.05.02-.1.08-.1.05-.01.07.04.09.09l.02.15ZM17.9 13.32c-.06-.46.05-.91.06-1.37 0-.05 0-.12.05-.12.07-.01.06.06.07.1.07.17.02.36.04.53l.01.77c0 .13-.03.26-.06.39-.01.05-.03.1-.1.09-.05 0-.06-.06-.07-.1v-.29ZM18.02 14.02c0 .1-.01.2-.05.28l-.29.66a.4.4 0 0 1-.1.14c-.04.05-.08.1-.15.05-.07-.04-.05-.11-.02-.16.2-.35.31-.73.46-1.1.01-.04.03-.08.09-.07.05.02.05.06.06.1v.1ZM17.65 13.86c0 .27-.08.53-.22.76-.05.08-.11.12-.2.07-.1-.04-.07-.12-.03-.2.1-.18.14-.38.2-.58l.02-.07c.02-.07.06-.14.14-.13.1.01.08.1.09.15ZM15 17.76a.56.56 0 0 0-.19.03c-.08.03-.14-.01-.17-.08s.01-.12.07-.15c.16-.1.34-.13.51-.19.05-.01.1.02.12.07.02.05 0 .08-.05.11-.1.07-.22.12-.3.21ZM16.26 16.4c-.05 0-.08-.01-.1-.05-.03-.04-.02-.08.01-.12.07-.1.15-.18.24-.26.06-.04.11-.1.16-.16a.1.1 0 0 1 .14 0c.04.02.06.07.03.12-.12.16-.25.33-.42.45a.16.16 0 0 1-.06.01Z" fill="#A47312"/></svg>