<svg width="190" height="165" fill="none" xmlns="http://www.w3.org/2000/svg"><circle cx="60" cy="105" r="60" fill="#F90"/><g clip-path="url(#a)" fill-rule="evenodd" clip-rule="evenodd" fill="#000"><path d="M101.13 15.49a.97.97 0 0 1 1.33-.36l57.05 33.04c.47.27.63.87.36 1.34a.97.97 0 0 1-1.33.36l-57.05-33.04a.98.98 0 0 1-.36-1.34Z"/><path d="M123.5 1.87a14 14 0 0 1 14 0L183 27.89A14 14 0 0 1 190 40v52.02a14.02 14.02 0 0 1-7 12.1v.01l-45.5 26a14 14 0 0 1-14 0l-45.5-26A14 14 0 0 1 71 92V39.99a14 14 0 0 1 7-12.1v-.01l45.5-26Zm7 .13a12 12 0 0 0-6 1.6v.01l-45.5 26A12 12 0 0 0 73 40v52a12 12 0 0 0 6 10.39l45.5 26a12 12 0 0 0 12 0l45.5-26A11.99 11.99 0 0 0 188 92V40a12 12 0 0 0-6-10.39l-45.5-26a12 12 0 0 0-6-1.61Z"/><path d="M73.13 33.49a1 1 0 0 1 1.35-.36L130 64.9l55.52-31.77a1 1 0 0 1 1.35.36.97.97 0 0 1-.36 1.33l-56.02 32.05a1 1 0 0 1-.98 0L73.49 34.82a.97.97 0 0 1-.36-1.33Z"/><path d="M130 65c.55 0 1 .44 1 .98v64.04c0 .54-.45.98-1 .98s-1-.44-1-.98V65.98c0-.54.45-.98 1-.98Z"/></g><defs><clipPath id="a"><path fill="#fff" d="M71 0h119v132H71z"/></clipPath></defs></svg>