<svg width="190" height="165" fill="none" xmlns="http://www.w3.org/2000/svg"><circle cx="64" cy="101" r="63.47" fill="#F90" stroke="#F90" stroke-width="1.06"/><path fill-rule="evenodd" clip-rule="evenodd" d="M121.68 50.03a17.03 17.03 0 1 0 0 34.07 17.03 17.03 0 0 0 0-34.07Zm-19.16 17.03a19.16 19.16 0 1 1 38.32 0 19.16 19.16 0 0 1-38.32 0Z" fill="#000"/><path fill-rule="evenodd" clip-rule="evenodd" d="M122.21 2.13a11.03 11.03 0 0 0-11.03 11.03v1.03a11.05 11.05 0 0 1-6.7 10.12c-.13.05-.27.08-.42.08h-.26a11.05 11.05 0 0 1-11.97-2.3h-.01l-.36-.37a11.03 11.03 0 0 0-15.61 0 11.03 11.03 0 0 0 0 15.6l.37.38a11.05 11.05 0 0 1 2.22 12.15 11.05 11.05 0 0 1-10.1 7.2h-.56a11.03 11.03 0 1 0 0 22.06h1.03a11.05 11.05 0 0 1 10.1 6.69 11.05 11.05 0 0 1-2.2 12.18h-.01l-.37.37a11.03 11.03 0 0 0 0 15.6 11.02 11.02 0 0 0 15.61 0l.37-.36a11.05 11.05 0 0 1 12.16-2.23 11.05 11.05 0 0 1 7.2 10.1V122.03a11.03 11.03 0 0 0 22.05 0V121a11.05 11.05 0 0 1 6.7-10.1 11.05 11.05 0 0 1 12.17 2.2l.01.01.36.36a11.04 11.04 0 0 0 15.61 0 11.03 11.03 0 0 0 0-15.6l-.37-.37a11.04 11.04 0 0 1-2.21-12.19 11.04 11.04 0 0 1 10.1-6.68h.55a11.03 11.03 0 0 0 0-22.06h-1.03a11.05 11.05 0 0 1-10.1-6.7 1.07 1.07 0 0 1-.1-.42v-.26a11.05 11.05 0 0 1 2.3-11.98h.01l.37-.37a11.02 11.02 0 0 0 0-15.6 11.04 11.04 0 0 0-15.61 0l-.37.37a11.05 11.05 0 0 1-12.18 2.2 11.05 11.05 0 0 1-6.7-10.1v-.55a11.03 11.03 0 0 0-11.02-11.03Zm-9.3 1.73a13.16 13.16 0 0 1 22.46 9.3v.54a8.92 8.92 0 0 0 5.4 8.16h.01a8.91 8.91 0 0 0 9.83-1.77l.36-.36a13.17 13.17 0 1 1 18.63 18.62l-.36.36a8.9 8.9 0 0 0-1.78 9.83c.06.13.09.28.09.43v.26a8.91 8.91 0 0 0 8.07 5.2h1.02a13.16 13.16 0 0 1 0 26.33h-.54a8.9 8.9 0 0 0-8.15 5.4v.01a8.9 8.9 0 0 0 1.77 9.83l.36.36a13.16 13.16 0 0 1-9.31 22.48 13.15 13.15 0 0 1-9.32-3.86l-.35-.35a8.9 8.9 0 0 0-9.83-1.78h-.01a8.91 8.91 0 0 0-5.4 8.15v1.03a13.17 13.17 0 0 1-26.33 0v-.53a8.91 8.91 0 0 0-5.83-8.14l-.04-.02-.03-.01a8.9 8.9 0 0 0-9.83 1.78l-.35.36a13.15 13.15 0 0 1-21.48-4.28 13.16 13.16 0 0 1 2.85-14.35l.36-.35a8.91 8.91 0 0 0 1.78-9.83v-.01a8.91 8.91 0 0 0-8.16-5.4h-1.02a13.16 13.16 0 0 1 0-26.33h.53a8.91 8.91 0 0 0 8.17-5.9 8.91 8.91 0 0 0-1.78-9.82l-.36-.36A13.16 13.16 0 1 1 92.97 20.2l.35.36a8.91 8.91 0 0 0 9.83 1.78c.14-.06.28-.1.43-.1h.26a8.92 8.92 0 0 0 5.2-8.06v-1.03c0-3.49 1.4-6.84 3.86-9.3Z" fill="#000"/></svg>