<svg width="67" height="66" fill="none" xmlns="http://www.w3.org/2000/svg"><path d="M60.5 61.55h-54a6.45 6.45 0 0 1-6.5-6.4v-44.3c0-3.54 2.92-6.4 6.5-6.4h35.44c1.02 0 1.85.8 1.85 1.81s-.83 1.82-1.85 1.82H6.49a2.78 2.78 0 0 0-2.8 2.76v44.32a2.78 2.78 0 0 0 2.8 2.76h54.02c1.54 0 2.8-1.24 2.8-2.76V10.84a2.78 2.78 0 0 0-2.8-2.76h-7.93a1.83 1.83 0 0 1-1.85-1.82c0-1 .83-1.81 1.85-1.81h7.93c3.58 0 6.49 2.87 6.49 6.4v44.3c0 3.54-2.92 6.4-6.5 6.4Z" fill="#2D527C"/><path d="M53.87 53.53H18.14a1.83 1.83 0 0 1-1.85-1.81c0-1 .83-1.82 1.85-1.82h35.73c.71 0 1.29-.57 1.29-1.26V17.38c0-.7-.58-1.27-1.29-1.27H18.14a1.83 1.83 0 0 1-1.85-1.81c0-1.01.83-1.82 1.85-1.82h35.73c2.75 0 5 2.2 5 4.9v31.26c0 2.69-2.25 4.9-5 4.9ZM9.98 53.53a1.83 1.83 0 0 1-1.84-1.81V14.28c0-1 .82-1.81 1.84-1.81 1.03 0 1.85.8 1.85 1.81v37.44c.01 1-.82 1.81-1.85 1.81Z" fill="#2D527C"/><path d="M42.67 47.5A14.64 14.64 0 0 1 27.95 33c0-8 6.61-14.5 14.72-14.5C50.8 18.5 57.4 25 57.4 33s-6.6 14.5-14.72 14.5Zm0-25.37A10.96 10.96 0 0 0 31.64 33c0 6 4.95 10.87 11.03 10.87 6.09 0 11.03-4.88 11.03-10.87 0-6-4.94-10.87-11.03-10.87Zm0 17.43A6.61 6.61 0 0 1 36.01 33a6.61 6.61 0 0 1 6.66-6.56A6.61 6.61 0 0 1 49.33 33a6.61 6.61 0 0 1-6.66 6.56Zm0-9.49A2.95 2.95 0 0 0 39.7 33a2.95 2.95 0 0 0 2.97 2.93A2.95 2.95 0 0 0 45.64 33a2.95 2.95 0 0 0-2.97-2.93Z" fill="#F0BF5F"/><path d="M18.12 39.78H9.98v5.9h8.14v-5.9Z" fill="#CEE8FA"/><path d="M18.14 47.49H9.98a1.83 1.83 0 0 1-1.84-1.82v-5.89c0-1 .82-1.82 1.84-1.82h8.14c1.02 0 1.85.81 1.85 1.82v5.9c.01 1-.81 1.8-1.83 1.8Zm-6.3-3.64h4.45V41.6h-4.45v2.25Z" fill="#2D527C"/><path d="M18.12 20.33H9.98v5.89h8.14v-5.9Z" fill="#CEE8FA"/><path d="M18.14 28.04H9.98a1.83 1.83 0 0 1-1.84-1.82v-5.9c0-1 .82-1.8 1.84-1.8h8.14c1.02 0 1.85.8 1.85 1.8v5.9c.01 1-.81 1.82-1.83 1.82Zm-6.3-3.64h4.45v-2.25h-4.45v2.25Z" fill="#2D527C"/><path d="M33.98 43.38a1.8 1.8 0 0 1-1.3-3.1l5.28-5.22c.72-.7 1.9-.7 2.62 0 .72.71.72 1.87 0 2.58l-5.29 5.2a1.9 1.9 0 0 1-1.3.54ZM46.42 31.13a1.9 1.9 0 0 1-1.31-.53 1.8 1.8 0 0 1 0-2.58l4.94-4.87c.72-.7 1.9-.7 2.62 0 .72.71.72 1.87 0 2.58l-4.95 4.87c-.35.35-.83.53-1.3.53ZM38.84 31.04a1.9 1.9 0 0 1-1.3-.53l-4.86-4.78a1.8 1.8 0 0 1 0-2.58c.72-.7 1.9-.7 2.61 0l4.86 4.78a1.8 1.8 0 0 1-1.31 3.11ZM51.36 43.38a1.9 1.9 0 0 1-1.3-.53L45.12 38a1.8 1.8 0 0 1 0-2.58c.72-.7 1.9-.7 2.62 0l4.92 4.85a1.8 1.8 0 0 1-1.3 3.1Z" fill="#F0BF5F"/></svg>