<svg width="64" height="66" fill="none" xmlns="http://www.w3.org/2000/svg"><g clip-path="url(#a)"><path d="M32.79 29.55c-.99 0-1.8-.83-1.8-1.86V6.64c.01-3.31 2.79-6 6.21-6a6.1 6.1 0 0 1 6.2 6.01c0 1.02-.8 1.86-1.8 1.86s-1.8-.83-1.8-1.86c0-1.26-1.17-2.3-2.61-2.3s-2.61 1.04-2.61 2.3V27.7a1.8 1.8 0 0 1-1.8 1.85ZM53.39 34.9c-.99 0-1.8-.82-1.8-1.85V6.64c.01-3.31 2.78-6 6.21-6a6.1 6.1 0 0 1 6.2 6c0 1.02-.8 1.85-1.8 1.85-.99 0-1.8-.82-1.8-1.85 0-1.26-1.17-2.3-2.61-2.3s-2.62 1.04-2.62 2.3v26.41a1.81 1.81 0 0 1-1.78 1.86Z" fill="#F0BF5F"/><path d="M42.5 16.11h-9.7c-.99 0-1.8-.82-1.8-1.85 0-1.03.8-1.86 1.8-1.86h9.7c.99 0 1.8.83 1.8 1.86 0 1.03-.81 1.85-1.8 1.85ZM42.5 29.55h-9.7c-.99 0-1.8-.83-1.8-1.86 0-1.03.8-1.86 1.8-1.86h9.7c.99 0 1.8.83 1.8 1.86a1.85 1.85 0 0 1-1.8 1.86ZM53.39 22.83h-9.7c-.99 0-1.8-.83-1.8-1.86 0-1.03.8-1.85 1.8-1.85h9.7c.98 0 1.8.82 1.8 1.85 0 1.03-.8 1.86-1.8 1.86Z" fill="#F0BF5F"/><path d="M58.96 48.35c0 2.22-2.56 4.01-5.73 4.01-3.17 0-5.74-1.79-5.74-4 0 2.21-2.57 4-5.74 4-3.16 0-5.74-1.79-5.74-4h.09c0 2.21-2.56 4-5.74 4-3.17 0-5.73-1.79-5.73-4 0 2.21-2.57 4-5.74 4-3.18 0-5.74-1.79-5.74-4h.09c0 2.21-2.56 4-5.74 4-3.17 0-5.74-1.79-5.74-4V37c0 2.22 2.57 4 5.74 4 3.18 0 5.74-1.78 5.74-4h-.09c0 2.22 2.56 4 5.74 4 3.17 0 5.73-1.78 5.73-4 0 2.22 2.57 4 5.74 4 3.18 0 5.74-1.78 5.74-4h-.09c0 2.22 2.57 4 5.74 4 3.17 0 5.74-1.78 5.74-4 0 2.22 2.56 4 5.73 4 3.18 0 5.74-1.78 5.74-4v11.34Z" fill="#CEE8FA"/><path d="M53.23 54.22a8.5 8.5 0 0 1-5.74-2.03 8.5 8.5 0 0 1-5.74 2.03 8.57 8.57 0 0 1-5.69-1.99 8.57 8.57 0 0 1-5.69 1.99 8.5 8.5 0 0 1-5.73-2.03 8.5 8.5 0 0 1-5.74 2.03 8.57 8.57 0 0 1-5.69-1.99 8.5 8.5 0 0 1-5.69 1.99C3.3 54.22 0 51.64 0 48.35V37.01c0-1.02.8-1.86 1.8-1.86s1.8.83 1.8 1.86c0 1 1.73 2.15 3.94 2.15 2 0 3.53-.89 3.87-1.79l-.01-.36c0-1.02.8-1.86 1.8-1.86h.09c.99 0 1.8.83 1.8 1.86 0 .12 0 .24-.02.36.34.9 1.88 1.8 3.88 1.8 2.21 0 3.94-1.17 3.94-2.16 0-1.02.8-1.86 1.8-1.86s1.8.83 1.8 1.86c0 1 1.72 2.15 3.94 2.15 2 0 3.53-.89 3.87-1.79l-.01-.36c0-1.02.8-1.86 1.8-1.86h.08c1 0 1.8.83 1.8 1.86v.36c.33.9 1.87 1.8 3.87 1.8 2.21 0 3.93-1.17 3.93-2.16 0-1.02.8-1.86 1.8-1.86s1.8.83 1.8 1.86c0 1 1.73 2.15 3.94 2.15s3.94-1.16 3.94-2.15c0-1.02.8-1.86 1.8-1.86s1.8.83 1.8 1.86v11.34c-.09 3.29-3.4 5.87-7.63 5.87Zm-3.94-5.87c0 1 1.72 2.16 3.94 2.16 2.2 0 3.93-1.16 3.93-2.16v-6.33a9.38 9.38 0 0 1-3.93.84 8.5 8.5 0 0 1-5.74-2.02 8.5 8.5 0 0 1-5.74 2.02 8.57 8.57 0 0 1-5.69-1.98 8.5 8.5 0 0 1-5.69 1.98 8.5 8.5 0 0 1-5.73-2.02 8.5 8.5 0 0 1-5.74 2.02 8.57 8.57 0 0 1-5.69-1.98 8.5 8.5 0 0 1-5.69 1.98c-1.44 0-2.8-.3-3.93-.84v6.33c0 1 1.72 2.16 3.94 2.16 2 0 3.53-.9 3.87-1.8l-.01-.36c0-1.02.8-1.85 1.8-1.85h.09c.98 0 1.8.82 1.8 1.85 0 .12 0 .25-.02.36.34.9 1.88 1.8 3.88 1.8 2.21 0 3.93-1.16 3.93-2.16 0-1.02.8-1.85 1.8-1.85s1.8.82 1.8 1.85c0 1 1.73 2.16 3.94 2.16 2 0 3.54-.9 3.88-1.8-.02-.11-.02-.24-.02-.36 0-1.02.8-1.85 1.8-1.85h.1c.98 0 1.8.82 1.8 1.85 0 .12 0 .25-.02.36.34.9 1.88 1.8 3.88 1.8 2.2 0 3.93-1.16 3.93-2.16 0-1.02.8-1.85 1.8-1.85.93 0 1.73.83 1.73 1.85ZM41.76 65.36a8.5 8.5 0 0 1-5.68-1.99 8.55 8.55 0 0 1-5.7 1.99 8.5 8.5 0 0 1-5.73-2.03 8.5 8.5 0 0 1-5.74 2.03c-4.22 0-7.52-2.58-7.52-5.87 0-1.02.8-1.86 1.8-1.86h.09a1.83 1.83 0 0 1 1.77 2.18c.31.92 1.9 1.85 3.89 1.85 2.21 0 3.93-1.16 3.93-2.16 0-1.02.8-1.85 1.8-1.85s1.8.82 1.8 1.85c0 1 1.73 2.16 3.94 2.16 1.96 0 3.53-.9 3.86-1.8v-.37c0-1.02.8-1.86 1.8-1.86h.08c.99 0 1.8.83 1.8 1.86l-.01.36c.34.9 1.91 1.8 3.86 1.8 2.21 0 3.94-1.15 3.94-2.15 0-1.02.8-1.85 1.8-1.85.98 0 1.8.82 1.8 1.85-.05 3.29-3.35 5.86-7.58 5.86Z" fill="#2D527C"/></g><defs><clipPath id="a"><path fill="#fff" d="M0 0h64v66H0z"/></clipPath></defs></svg>