<svg width="66" height="66" fill="none" xmlns="http://www.w3.org/2000/svg"><g clip-path="url(#a)"><path d="M38.45 18.49H19.21a1.87 1.87 0 0 1 0-3.74h19.24a1.87 1.87 0 0 1 0 3.74ZM23.32 49.49h-5.94a17.38 17.38 0 0 1-8.35-32.61 1.88 1.88 0 1 1 1.8 3.3 13.62 13.62 0 0 0 6.55 25.57h5.94a1.87 1.87 0 0 1 0 3.74Z" fill="#2D527C"/><path d="M24.92 63.2c-8.55 0-15.51-6.96-15.51-15.52a1.87 1.87 0 0 1 3.74 0 11.78 11.78 0 0 0 23.54 0 11.78 11.78 0 0 0-20.3-8.1 1.88 1.88 0 1 1-2.73-2.6A15.54 15.54 0 1 1 24.91 63.2Z" fill="#F0BF5F"/><path d="M49.56 45.79H38.12a1.87 1.87 0 0 1 0-3.74h11.44a1.87 1.87 0 0 1 0 3.74Z" fill="#F0BF5F"/><path d="M61.81 53.33H38.56a1.87 1.87 0 0 1 0-3.74H61.8c.25 0 .44-.2.44-.44V38.5c0-.36-.3-.64-.65-.64h-1.62c-.36 0-.64.3-.64.64v5a1.87 1.87 0 0 1-3.74 0v-5a4.4 4.4 0 0 1 4.4-4.4h1.62a4.4 4.4 0 0 1 4.4 4.4v10.65a4.21 4.21 0 0 1-4.2 4.18Z" fill="#F0BF5F"/><path d="M24.92 52.94a5.34 5.34 0 1 0 0-10.67 5.34 5.34 0 0 0 0 10.67Z" fill="#CEE8FA"/><path d="M24.92 54.81a7.22 7.22 0 0 1 0-14.41 7.22 7.22 0 0 1 0 14.41Zm0-10.66a3.45 3.45 0 1 0 0 6.91 3.45 3.45 0 0 0 0-6.91Z" fill="#F0BF5F"/><path d="M27.9 24.57V8.65c0-2.2 1.77-3.97 3.97-3.97h28.28c2.19 0 3.97 1.78 3.97 3.97v15.92c0 2.2-1.78 3.97-3.97 3.97H31.88a3.97 3.97 0 0 1-3.98-3.97Z" fill="#CEE8FA"/><path d="M60.15 30.42H31.88a5.86 5.86 0 0 1-5.85-5.85V8.65a5.86 5.86 0 0 1 5.85-5.85h28.28a5.86 5.86 0 0 1 5.85 5.85v15.92a5.88 5.88 0 0 1-5.86 5.85ZM31.88 6.55a2.1 2.1 0 0 0-2.1 2.1v15.92c0 1.16.94 2.1 2.1 2.1h28.28a2.1 2.1 0 0 0 2.1-2.1V8.65a2.1 2.1 0 0 0-2.1-2.1H31.88Z" fill="#2D527C"/><path d="M44.45 17.71h-.63v-1.15c0-.65-.66-1.08-1.68-1.08s-1.68.43-1.68 1.08v1.15h-1.14l3.23-6.5c.05-.12.12-.28.12-.43 0-.82-1.08-1.32-1.68-1.32-.62 0-1.12.31-1.4.87l-4.39 8.62a1.4 1.4 0 0 0-.18.66c0 .72.48 1.2 1.18 1.2h4.26v1.84c0 .76.87 1.1 1.68 1.1.8 0 1.68-.35 1.68-1.1v-1.83h.63c.56 0 1.1-.76 1.1-1.56 0-.75-.36-1.55-1.1-1.55ZM55.9 17.71h-.64v-1.15c0-.65-.66-1.08-1.67-1.08-1.02 0-1.68.43-1.68 1.08v1.15h-1.15l3.25-6.5c.05-.12.12-.28.12-.43 0-.82-1.09-1.32-1.68-1.32-.62 0-1.12.31-1.4.87l-4.39 8.62a1.4 1.4 0 0 0-.18.66c0 .72.48 1.2 1.18 1.2h4.26v1.84c0 .76.87 1.1 1.68 1.1.81 0 1.67-.35 1.67-1.1v-1.83h.64c.56 0 1.1-.76 1.1-1.56 0-.75-.36-1.55-1.12-1.55Z" fill="#2D527C"/></g><defs><clipPath id="a"><path fill="#fff" d="M0 0h66v66H0z"/></clipPath></defs></svg>