<svg width="64" height="66" fill="none" xmlns="http://www.w3.org/2000/svg"><path d="M54.02 49.72H9.98a1.85 1.85 0 0 1-1.83-1.88v-1.99c0-13.56 10.7-24.6 23.85-24.6 2.49 0 4.94.4 7.29 1.18a1.9 1.9 0 0 1 1.19 2.37 1.83 1.83 0 0 1-2.3 1.23c-2-.66-4.07-1-6.18-1-11.14 0-20.2 9.35-20.2 20.83v.1h40.4v-.1c0-5.59-2.13-10.85-5.98-14.8a1.93 1.93 0 0 1 0-2.66 1.8 1.8 0 0 1 2.58-.01 24.82 24.82 0 0 1 7.06 17.46v1.99a1.87 1.87 0 0 1-1.84 1.88Z" fill="#F0BF5F"/><path d="M32 24.58a1.85 1.85 0 0 1-1.82-1.88v-5.34c0-1.04.8-1.88 1.82-1.88 1.01 0 1.83.84 1.83 1.88v5.34c0 1.04-.82 1.88-1.83 1.88Z" fill="#F0BF5F"/><path d="M36.48 18.8h-8.95a1.85 1.85 0 0 1-1.83-1.87c0-1.05.81-1.89 1.83-1.89h8.95c1 0 1.82.84 1.82 1.89 0 1.04-.81 1.88-1.82 1.88Z" fill="#F0BF5F"/><path d="M47.99 47.84H16v7.92h31.99v-7.92Z" fill="#CEE8FA"/><path d="M48 57.65H16a1.85 1.85 0 0 1-1.82-1.89v-7.92c0-1.05.8-1.88 1.82-1.88h32c1.01 0 1.83.83 1.83 1.88v7.92c0 1.05-.83 1.89-1.83 1.89Zm-30.16-3.77h28.34v-4.16H17.84v4.16Z" fill="#F0BF5F"/><path d="M54.24 61.81H9.76a3.91 3.91 0 0 1-3.85-3.97c0-2.2 1.73-3.97 3.85-3.97h44.48a3.91 3.91 0 0 1 3.85 3.97 3.92 3.92 0 0 1-3.85 3.97Z" fill="#CEE8FA"/><path d="M54.24 63.7H9.76a5.77 5.77 0 0 1-5.67-5.86 5.76 5.76 0 0 1 5.67-5.85h44.48a5.78 5.78 0 0 1 5.67 5.85 5.78 5.78 0 0 1-5.67 5.85ZM9.76 55.75c-1.11 0-2.01.93-2.01 2.08s.9 2.08 2.01 2.08h44.48c1.11 0 2.01-.93 2.01-2.08s-.9-2.08-2.01-2.08H9.76ZM32 9.73a1.85 1.85 0 0 1-1.82-1.88V4.19c0-1.04.8-1.88 1.82-1.88 1.01 0 1.83.84 1.83 1.88v3.66c0 1.04-.82 1.88-1.83 1.88ZM62.17 35.3h-3.55a1.85 1.85 0 0 1-1.82-1.87c0-1.05.81-1.89 1.83-1.89h3.54c1.02 0 1.83.84 1.83 1.89 0 1.04-.81 1.88-1.83 1.88ZM5.38 35.3H1.83A1.85 1.85 0 0 1 0 33.44c0-1.05.81-1.89 1.82-1.89h3.55c1.02 0 1.83.84 1.83 1.89 0 1.04-.81 1.88-1.83 1.88ZM49.54 17.22c-.46 0-.94-.18-1.29-.55a1.93 1.93 0 0 1 0-2.67l2.5-2.58a1.8 1.8 0 0 1 2.59 0c.71.74.71 1.93 0 2.67l-2.52 2.59a1.8 1.8 0 0 1-1.28.54ZM14.46 17.22c-.46 0-.94-.18-1.29-.55l-2.5-2.6a1.93 1.93 0 0 1 0-2.66 1.8 1.8 0 0 1 2.58 0L15.76 14c.72.73.72 1.93 0 2.67-.36.37-.82.55-1.3.55Z" fill="#2D527C"/></svg>