<svg width="66" height="66" fill="none" xmlns="http://www.w3.org/2000/svg"><g clip-path="url(#a)"><path d="M15.64 60.32h-4.45a1.79 1.79 0 1 1 0-3.59h4.45a1.79 1.79 0 1 1 0 3.59ZM64.2 60.32H59.5a1.79 1.79 0 1 1 0-3.59h4.72a1.79 1.79 0 1 1 0 3.59Z" fill="#F0BF5F"/><path d="M62.24 60.1h-2.75a1.79 1.79 0 1 1 0-3.59h.95v-.78a9.75 9.75 0 0 0-4.5-8.55 14.4 14.4 0 0 0-7.9-2.15H21.9a5.09 5.09 0 0 0-4.96 4.03l-1.57 7.45h.54a1.79 1.79 0 1 1 0 3.59h-2.75a1.8 1.8 0 0 1-1.75-2.15l2.02-9.62a8.71 8.71 0 0 1 8.48-6.89h26.13c3.72 0 7.13.94 9.86 2.74a13.36 13.36 0 0 1 6.14 11.55v2.57a1.8 1.8 0 0 1-1.8 1.8Z" fill="#F0BF5F"/><path d="M41.96 60.1H28.28a1.79 1.79 0 1 1 0-3.59h13.7a1.79 1.79 0 1 1-.02 3.59Z" fill="#F0BF5F"/><path d="M48.03 43.24c2.7 0 5.25.55 7.4 1.6l-2.51-10.89a6.06 6.06 0 0 0-5.86-4.5H31.1a6.02 6.02 0 0 0-5.58 3.73l-3.75 10.06h26.27Z" fill="#CEE8FA"/><path d="M55.43 46.64c-.27 0-.54-.07-.79-.18-1.9-.93-4.2-1.43-6.61-1.43H21.76c-.6 0-1.14-.29-1.47-.78a1.79 1.79 0 0 1-.2-1.65l3.74-10.05.03-.07a7.82 7.82 0 0 1 7.25-4.84h15.97c3.55 0 6.67 2.4 7.58 5.84v.05l2.52 10.9c.16.66-.09 1.37-.63 1.8-.32.28-.72.4-1.12.4Zm-31.08-5.2h23.7c1.7 0 3.34.21 4.9.6L51.2 34.4a4.26 4.26 0 0 0-4.11-3.14H31.09a4.24 4.24 0 0 0-3.92 2.6l-2.82 7.6Z" fill="#F0BF5F"/><path d="M41.96 52.57c-1 0-1.8-.8-1.8-1.8V30.14a1.79 1.79 0 1 1 3.6 0v20.63c0 1-.8 1.8-1.8 1.8Z" fill="#F0BF5F"/><path d="M54.46 64.87a7.1 7.1 0 1 1 .01-14.22 7.1 7.1 0 0 1 0 14.22Zm0-10.63a3.52 3.52 0 1 0 .01 7.05 3.52 3.52 0 0 0 0-7.05ZM20.84 64.87a7.1 7.1 0 1 1 .01-14.22 7.1 7.1 0 0 1 0 14.22Zm0-10.63a3.52 3.52 0 1 0 0 7.03 3.52 3.52 0 0 0 0-7.03ZM24.39 25.72H1.79c-1 0-1.79-.8-1.79-1.8v-21c0-.99.8-1.79 1.8-1.79h22.59c1 0 1.8.8 1.8 1.8v21c0 .99-.8 1.79-1.8 1.79Zm-20.8-3.59h19V4.72h-19v17.41Z" fill="#2D527C"/><path d="M13.33 7.26H9.99c-.68 0-1.2.44-1.2 1.03v10.26c0 .62.63 1.04 1.52 1.04.9 0 1.52-.42 1.52-1.04v-3.21h1.33c2.7 0 4.24-1.46 4.24-4v-.09c0-2.57-1.44-4-4.07-4Zm-.17 5.6h-1.33V9.98h1.33c.8 0 1.19.44 1.19 1.34v.18c0 .9-.39 1.34-1.19 1.34ZM13.08 40.8c-.99 0-1.79-.8-1.79-1.8V24.17a1.79 1.79 0 1 1 3.59 0V39c0 .99-.8 1.79-1.8 1.79Z" fill="#2D527C"/></g><defs><clipPath id="a"><path fill="#fff" d="M0 0h66v66H0z"/></clipPath></defs></svg>