<svg width="64" height="66" fill="none" xmlns="http://www.w3.org/2000/svg"><g clip-path="url(#a)"><path d="M37.95 58.4H20.29c-8.91 0-16.16-7.47-16.16-16.66v-15.8c0-1.04.8-1.86 1.8-1.86.98 0 1.8.84 1.8 1.86v15.81c0 7.14 5.62 12.94 12.54 12.94h17.67c1 0 1.8.84 1.8 1.86a1.8 1.8 0 0 1-1.79 1.86ZM48.46 57.58a1.8 1.8 0 0 1-1.7-1.25 1.88 1.88 0 0 1 1.1-2.37 12.95 12.95 0 0 0 8.4-12.22v-1.87c0-1.03.82-1.86 1.8-1.86.99 0 1.8.84 1.8 1.86v1.87c0 7.06-4.34 13.4-10.81 15.73-.19.07-.39.11-.59.11Z" fill="#2D527C"/><path d="M58.59 32.07H5.4a3.66 3.66 0 0 1-3.6-3.71 3.66 3.66 0 0 1 3.6-3.71H58.6c1.99 0 3.6 1.66 3.6 3.7a3.66 3.66 0 0 1-3.61 3.72Z" fill="#CEE8FA"/><path d="M58.59 33.93H5.4A5.5 5.5 0 0 1 0 28.35a5.5 5.5 0 0 1 5.41-5.59H58.6a5.5 5.5 0 0 1 5.41 5.59 5.51 5.51 0 0 1-5.42 5.58ZM5.4 26.49c-1 0-1.8.84-1.8 1.86 0 1.01.81 1.85 1.8 1.85H58.6c1 0 1.8-.84 1.8-1.85 0-1.02-.81-1.86-1.8-1.86H5.41Z" fill="#2D527C"/><path d="M14.24 61.9a3.2 3.2 0 0 0 3.15-3.25 3.2 3.2 0 0 0-3.15-3.25 3.2 3.2 0 0 0-3.15 3.25 3.2 3.2 0 0 0 3.15 3.25Z" fill="#CEE8FA"/><path d="M14.24 63.77a5.05 5.05 0 0 1-4.96-5.12 5.05 5.05 0 0 1 4.96-5.12c2.74 0 4.96 2.3 4.96 5.12a5.05 5.05 0 0 1-4.96 5.12Zm0-6.51c-.75 0-1.35.63-1.35 1.4 0 .75.61 1.38 1.35 1.38.73 0 1.35-.63 1.35-1.39 0-.76-.6-1.39-1.35-1.39Z" fill="#2D527C"/><path d="M49.76 61.9a3.2 3.2 0 0 0 3.15-3.25 3.2 3.2 0 0 0-3.15-3.25 3.2 3.2 0 0 0-3.15 3.25 3.2 3.2 0 0 0 3.15 3.25Z" fill="#CEE8FA"/><path d="M49.76 63.77a5.05 5.05 0 0 1-4.96-5.12 5.05 5.05 0 0 1 4.96-5.12c2.74 0 4.97 2.3 4.97 5.12a5.05 5.05 0 0 1-4.97 5.12Zm0-6.51c-.75 0-1.35.63-1.35 1.4 0 .75.62 1.38 1.35 1.38.74 0 1.35-.63 1.35-1.39 0-.76-.61-1.39-1.35-1.39Z" fill="#2D527C"/><path d="M40.42 11.43H23.57c-1 0-1.8-.83-1.8-1.85s.82-1.86 1.8-1.86h16.87c1 0 1.8.84 1.8 1.86s-.82 1.85-1.82 1.85Z" fill="#F0BF5F"/><path d="M41.01 15.06c-1 0-1.8-.84-1.8-1.86V4.09c0-1.03.81-1.86 1.8-1.86s1.8.84 1.8 1.86v9.11c0 1.03-.8 1.86-1.8 1.86Z" fill="#F0BF5F"/><path d="M44.26 5.96h-6.48c-1 0-1.8-.84-1.8-1.86s.8-1.86 1.8-1.86h6.48c1 0 1.8.84 1.8 1.86s-.81 1.86-1.8 1.86ZM22.99 15.06c-1 0-1.8-.84-1.8-1.86V4.09c0-1.03.81-1.86 1.8-1.86s1.8.84 1.8 1.86v9.11c0 1.03-.8 1.86-1.8 1.86Z" fill="#F0BF5F"/><path d="M26.23 5.96h-6.5c-1 0-1.8-.84-1.8-1.86s.82-1.86 1.8-1.86h6.5c1 0 1.8.84 1.8 1.86s-.8 1.86-1.8 1.86ZM32 19.34c-1 0-1.8-.84-1.8-1.86V9.76c0-1.03.81-1.86 1.8-1.86s1.8.84 1.8 1.86v7.72c0 1.02-.8 1.86-1.8 1.86Z" fill="#F0BF5F"/><path d="M24.46 43.16h-9.71a2.27 2.27 0 0 1-2.22-2.3V24.62h14.15v16.24c0 1.28-1 2.3-2.22 2.3Z" fill="#CEE8FA"/><path d="M24.46 45.03h-9.71a4.1 4.1 0 0 1-4.03-4.15V24.63c0-1.03.82-1.85 1.8-1.85h14.16c1 0 1.8.84 1.8 1.85v16.25a4.08 4.08 0 0 1-4.02 4.15ZM14.34 26.49v14.39c0 .23.19.42.41.42h9.71c.23 0 .41-.2.41-.42V26.49H14.35Z" fill="#2D527C"/></g><defs><clipPath id="a"><path fill="#fff" d="M0 0h64v66H0z"/></clipPath></defs></svg>