<svg width="64" height="66" fill="none" xmlns="http://www.w3.org/2000/svg"><path d="M58.24 61.27h-8.8c-.94 0-1.7-.79-1.7-1.75 0-.97.76-1.76 1.7-1.76h8.8c1.31 0 2.37-1.1 2.37-2.45V23.5a2.41 2.41 0 0 0-2.37-2.45h-41a2.41 2.41 0 0 0-2.38 2.45v31.85a2.41 2.41 0 0 0 2.38 2.45H40.1c.94 0 1.7.79 1.7 1.75 0 .97-.76 1.75-1.7 1.75H17.24a5.86 5.86 0 0 1-5.76-5.94V23.5a5.86 5.86 0 0 1 5.76-5.95h41A5.86 5.86 0 0 1 64 23.5v31.85a5.86 5.86 0 0 1-5.76 5.93Z" fill="#2D527C"/><path d="M23.84 53.1a3.02 3.02 0 0 1-2.96-3.05v-21.3a3.02 3.02 0 0 1 2.96-3.05 3.02 3.02 0 0 1 2.96 3.06v21.3a3.03 3.03 0 0 1-2.96 3.05Z" fill="#CEE8FA"/><path d="M23.84 54.85a4.73 4.73 0 0 1-4.65-4.8v-21.3c0-2.63 2.08-4.79 4.65-4.79a4.73 4.73 0 0 1 4.65 4.8v21.3c0 2.64-2.09 4.79-4.65 4.79Zm0-27.4c-.7 0-1.27.59-1.27 1.3v21.3c0 .73.57 1.3 1.27 1.3.7 0 1.26-.57 1.26-1.3v-21.3c0-.71-.58-1.3-1.26-1.3Z" fill="#F0BF5F"/><path d="M37.74 53.1a3.02 3.02 0 0 1-2.97-3.05v-21.3a3.02 3.02 0 0 1 2.97-3.05 3.02 3.02 0 0 1 2.96 3.06v21.3a3.02 3.02 0 0 1-2.96 3.05Z" fill="#CEE8FA"/><path d="M37.74 54.85a4.73 4.73 0 0 1-4.65-4.8v-21.3c0-2.63 2.08-4.79 4.65-4.79a4.73 4.73 0 0 1 4.65 4.8v21.3a4.72 4.72 0 0 1-4.65 4.79Zm0-27.4c-.7 0-1.27.59-1.27 1.3v21.3c0 .73.57 1.3 1.27 1.3.7 0 1.26-.57 1.26-1.3v-21.3c0-.71-.56-1.3-1.26-1.3Z" fill="#F0BF5F"/><path d="M51.65 53.1a3.02 3.02 0 0 1-2.96-3.05v-21.3a3.02 3.02 0 0 1 2.96-3.05 3.02 3.02 0 0 1 2.96 3.06v21.3a3.02 3.02 0 0 1-2.96 3.05Z" fill="#CEE8FA"/><path d="M51.65 54.85a4.73 4.73 0 0 1-4.65-4.8v-21.3c0-2.63 2.09-4.79 4.65-4.79a4.73 4.73 0 0 1 4.65 4.8v21.3c0 2.64-2.09 4.79-4.65 4.79Zm0-27.4c-.7 0-1.26.59-1.26 1.3v21.3c0 .73.56 1.3 1.26 1.3s1.26-.57 1.26-1.3v-21.3c0-.71-.56-1.3-1.26-1.3Z" fill="#F0BF5F"/><path d="M13.18 29.71h-5.9c-.93 0-1.7-.78-1.7-1.75s.77-1.75 1.7-1.75h5.9c.93 0 1.7.78 1.7 1.75s-.77 1.75-1.7 1.75ZM13.18 52.6h-5.9c-.93 0-1.7-.8-1.7-1.76 0-.97.77-1.75 1.7-1.75h5.9c.93 0 1.7.78 1.7 1.75s-.77 1.75-1.7 1.75Z" fill="#2D527C"/><path d="M5.92 32.42c-.93 0-1.7-.79-1.7-1.75v-18.7c0-.96.77-1.75 1.7-1.75.94 0 1.7.8 1.7 1.76v18.69c0 .96-.76 1.75-1.7 1.75Z" fill="#F0BF5F"/><path d="M5.92 61.27c-.93 0-1.7-.79-1.7-1.75V39.4c0-.97.77-1.76 1.7-1.76.94 0 1.7.79 1.7 1.76v20.1c0 .97-.76 1.76-1.7 1.76Z" fill="#2D527C"/><path d="M10.18 6.48H1.7v9.44h8.48V6.48Z" fill="#CEE8FA"/><path d="M10.16 17.66H1.7c-.94 0-1.7-.79-1.7-1.75V6.48c0-.96.76-1.75 1.7-1.75h8.48c.93 0 1.7.79 1.7 1.75v9.44a1.74 1.74 0 0 1-1.72 1.74Zm-6.77-3.5h5.08V8.23H3.4v5.95Z" fill="#2D527C"/></svg>