<svg width="67" height="66" fill="none" xmlns="http://www.w3.org/2000/svg"><g clip-path="url(#a)"><path d="M40.83 49.07H11.07v-14a9.05 9.05 0 0 1 9.12-9h20.64v23Z" fill="#CEE8FA"/><path d="M40.83 50.94H11.07c-1.05 0-1.9-.83-1.9-1.87v-14c0-5.99 4.95-10.86 11.02-10.86h20.64c1.05 0 1.9.84 1.9 1.87v23c0 1.03-.85 1.86-1.9 1.86Zm-27.86-3.73h25.95V27.96H20.18a7.16 7.16 0 0 0-7.21 7.1v12.15Z" fill="#2D527C"/><path d="M60.44 34.26H6.56A6.52 6.52 0 0 1 0 27.8v-5.81a6.52 6.52 0 0 1 6.56-6.46h13.57c1.04 0 1.9.84 1.9 1.87 0 1.03-.86 1.87-1.9 1.87H6.56a2.75 2.75 0 0 0-2.77 2.72v5.81c0 1.5 1.25 2.72 2.77 2.72h53.87a2.75 2.75 0 0 0 2.76-2.72v-5.81c0-1.5-1.24-2.72-2.76-2.72H33.5c-1.05 0-1.9-.84-1.9-1.87 0-1.03.85-1.87 1.9-1.87h26.94c3.62 0 6.56 2.9 6.56 6.46v5.81a6.52 6.52 0 0 1-6.56 6.47Z" fill="#F0BF5F"/><path d="M33.5 19.16a1.9 1.9 0 0 1-1.53-.77 1.85 1.85 0 0 1 .4-2.61c1.78-1.32 5.5-4.77 5.5-7.08a4.2 4.2 0 0 0-4.37-4.3 4.35 4.35 0 0 0-4.37 4.3c0 1.03-.85 1.87-1.9 1.87-1.05 0-1.9-.84-1.9-1.87v-.17c0-.05 0-.1.02-.15A8.1 8.1 0 0 1 33.5.64a7.94 7.94 0 0 1 8.18 8.06c0 4.82-6.32 9.57-7.05 10.1-.34.24-.74.36-1.13.36Z" fill="#F0BF5F"/><path d="M47.54 61.26H22.38c-1.05 0-1.9-.84-1.9-1.87v-10.3c0-1.03.85-1.87 1.9-1.87h33.56c1.05 0 1.9.84 1.9 1.87 0 1.03-.85 1.87-1.9 1.87H24.27v6.56h23.27c1.05 0 1.9.84 1.9 1.87 0 1.03-.85 1.87-1.9 1.87Z" fill="#2D527C"/><path d="M55.93 49.07v-15.5c0-4.14-3.4-7.5-7.6-7.5H22.38v23h33.55Z" fill="#CEE8FA"/><path d="M55.93 50.94H22.38c-1.05 0-1.9-.83-1.9-1.87V26.1c0-1.03.85-1.87 1.9-1.87h25.96c5.23 0 9.5 4.2 9.5 9.36v15.5a1.9 1.9 0 0 1-1.91 1.86Zm-31.66-3.73h29.76V33.57c0-3.1-2.55-5.61-5.69-5.61H24.27v19.25ZM22.38 65.36c-1.05 0-1.9-.84-1.9-1.87v-4.1c0-1.03.85-1.87 1.9-1.87 1.04 0 1.9.84 1.9 1.87v4.1c0 1.03-.86 1.87-1.9 1.87Z" fill="#2D527C"/><path d="M55.93 65.36c-1.05 0-1.9-.84-1.9-1.87V47.88c0-1.04.85-1.87 1.9-1.87 1.05 0 1.9.83 1.9 1.87v15.6a1.88 1.88 0 0 1-1.9 1.88ZM47.54 65.36c-1.05 0-1.9-.84-1.9-1.87v-4.1c0-1.03.85-1.87 1.9-1.87 1.05 0 1.9.84 1.9 1.87v4.1c0 1.03-.85 1.87-1.9 1.87ZM39.15 65.36c-1.04 0-1.9-.84-1.9-1.87v-4.1c0-1.03.86-1.87 1.9-1.87 1.05 0 1.9.84 1.9 1.87v4.1c0 1.03-.85 1.87-1.9 1.87ZM30.77 65.36c-1.05 0-1.9-.84-1.9-1.87v-4.1c0-1.03.85-1.87 1.9-1.87 1.04 0 1.9.84 1.9 1.87v4.1c0 1.03-.86 1.87-1.9 1.87Z" fill="#2D527C"/></g><defs><clipPath id="a"><path fill="#fff" d="M0 0h67v66H0z"/></clipPath></defs></svg>