<svg width="25" height="25" fill="none" xmlns="http://www.w3.org/2000/svg"><path d="M12.5 0a12.5 12.5 0 1 0 0 25 12.5 12.5 0 0 0 0-25Zm6.34 13.85c.59.57 1.2 1.1 1.71 1.74.23.28.46.57.62.9.23.46.02.97-.39 1h-2.55a2 2 0 0 1-1.64-.67c-.36-.36-.69-.74-1.02-1.12-.13-.16-.28-.31-.46-.41-.36-.23-.67-.16-.85.2-.2.38-.25.8-.28 1.2-.02.62-.2.77-.82.8a6.46 6.46 0 0 1-3.65-.8 8.12 8.12 0 0 1-2.45-2.3A31.28 31.28 0 0 1 3.8 8.61c-.2-.46-.05-.69.46-.71.84-.03 1.66-.03 2.5 0 .34 0 .57.2.7.51.45 1.1 1 2.17 1.68 3.14.18.26.38.52.64.72.3.2.51.13.67-.2.07-.2.12-.44.15-.67.08-.77.08-1.53-.05-2.3-.08-.51-.34-.82-.82-.92-.26-.05-.2-.13-.1-.28.2-.23.4-.38.79-.38h2.89c.46.1.56.28.61.74v3.22c0 .18.08.71.41.82.26.07.44-.13.59-.29.69-.74 1.17-1.6 1.63-2.5.2-.41.36-.82.54-1.23.13-.3.3-.46.67-.46h2.78c.08 0 .16 0 .26.03.46.07.59.28.46.74a6.8 6.8 0 0 1-1.1 1.92c-.46.64-.97 1.25-1.43 1.91-.46.62-.44.92.1 1.43Z" fill="#999"/></svg>