<svg width="25" height="25" fill="none" xmlns="http://www.w3.org/2000/svg"><path d="M10.71 8.33a1.87 1.87 0 1 0 3.73 0 1.87 1.87 0 0 0-3.73 0Z" fill="#999"/><path fill-rule="evenodd" clip-rule="evenodd" d="M12.5 25a12.5 12.5 0 1 0 0-25 12.5 12.5 0 0 0 0 25ZM8.06 8.33a4.51 4.51 0 1 1 9.03 0 4.51 4.51 0 0 1-9.03 0Zm9.06 6.83c-.06.05-1.14.9-2.95 1.27l2.73 2.7a1.23 1.23 0 1 1-1.74 1.74l-2.64-2.58-2.41 2.57a1.22 1.22 0 0 1-1.74.03 1.23 1.23 0 0 1-.03-1.74l2.6-2.7a7.5 7.5 0 0 1-3.05-1.29 1.23 1.23 0 0 1 1.53-1.91c.02 0 1.2.9 3.1.9 1.9 0 3.05-.9 3.06-.9a1.23 1.23 0 0 1 1.54 1.91Z" fill="#999"/></svg>