<svg width="25" height="25" fill="none" xmlns="http://www.w3.org/2000/svg"><path d="M17.18 11.78c-.85 0-1.54.67-1.54 1.51 0 .85.7 1.54 1.51 1.54.85 0 1.51-.7 1.51-1.51a1.46 1.46 0 0 0-1.48-1.54Zm0 2.28a.75.75 0 0 1-.77-.77c0-.43.33-.76.77-.76.43 0 .76.35.76.76 0 .44-.35.77-.76.77ZM7.8 9.59a3.75 3.75 0 1 0 3.76 3.76A3.75 3.75 0 0 0 7.8 9.58Zm.05 6.03a2.35 2.35 0 0 1-2.46-2.33c0-1.33 1.1-2.35 2.33-2.32a2.32 2.32 0 0 1 2.33 2.32c.02 1.3-1 2.28-2.2 2.33Z" fill="#999"/><path d="M12.5 0a12.5 12.5 0 1 0 0 25 12.5 12.5 0 0 0 0-25Zm7.18 17.36a4.6 4.6 0 0 1-3.63.56 4.8 4.8 0 0 1-2.3-1.36l-.25-.28-1 1.51c-.33-.51-.66-1-1-1.48-.02 0-.02.02-.02.02l-.03.03A4.7 4.7 0 0 1 4 10.63c.02-.02.02-.1.02-.12a5.2 5.2 0 0 0-.66-1.44l-.23-.33v-.02H6c.05 0 .07-.03.12-.05a9.54 9.54 0 0 1 2.13-1.03A11.85 11.85 0 0 1 11.53 7a13.9 13.9 0 0 1 4.68.49c.9.28 1.7.66 2.5 1.15.05.03.13.05.2.05h3v.03l-.13.2c-.3.49-.59.97-.74 1.54-.03.05-.03.1.02.17a4.67 4.67 0 0 1 .74 3.89 4.92 4.92 0 0 1-2.12 2.84Z" fill="#999"/><path d="M7.72 11.78c-.82 0-1.5.7-1.5 1.51 0 .85.68 1.51 1.53 1.51.81 0 1.5-.69 1.5-1.53a1.5 1.5 0 0 0-1.53-1.49Zm.03 2.3a.78.78 0 0 1-.8-.79c0-.43.34-.76.77-.76a.8.8 0 0 1 .8.76c.02.44-.34.77-.77.8ZM17.1 9.61a3.75 3.75 0 0 0 .08 7.49 3.75 3.75 0 1 0-.08-7.49Zm.18 6a2.33 2.33 0 1 1-.2-4.64 2.33 2.33 0 0 1 .2 4.65Z" fill="#999"/><path d="M13.98 9.87a4.79 4.79 0 0 1 2.94-1.26 10.7 10.7 0 0 0-4.19-.86c-1.64-.03-3.25.2-4.75.84a4.76 4.76 0 0 1 4.5 4.09 5 5 0 0 1 1.5-2.81Z" fill="#999"/></svg>